# Blender 3.3.1
# www.blender.org
o Cube
v 1.125407 -0.047656 -1.012362
v 1.125407 -0.047656 1.054451
v 1.052211 5.119375 -1.012362
v 1.052211 5.119375 1.054451
v 0.000000 5.119375 -1.893194
v 0.000000 4.994996 2.348798
v 0.000000 -0.047656 -1.893194
v 0.000000 3.864876 3.443394
v 0.000000 9.994996 1.104890
v 0.519340 8.173049 0.722151
v 0.519340 8.173049 -0.722151
v 0.000000 9.994996 -1.104890
v 1.057158 -3.147875 0.934894
v 0.948076 -4.915076 -0.671010
v 0.000000 -3.147875 -1.623411
v 0.000000 -3.033464 2.103827
v 0.613237 -6.114476 0.346786
v 0.945979 -5.038177 -0.662670
v 0.000000 -6.005004 -0.966911
v 0.000000 -6.005004 1.019930
v 0.121358 4.994996 2.185110
v 0.863431 -0.047656 -1.452778
v 0.863431 5.119375 -1.452778
v 0.121358 -0.005004 2.185110
v 0.430538 9.994996 0.850684
v 0.430538 9.994996 -0.850684
v 0.829306 -3.147875 -1.241167
v 0.113343 -3.005004 1.912883
v 0.466979 -6.005004 -0.935683
v 0.526792 -6.127817 0.699145
v 1.125407 3.163245 -1.012362
v 1.125407 3.163245 1.054451
v 0.000000 3.365296 2.799555
v 0.000000 3.163245 -1.893194
v 0.121358 3.102101 2.185110
v 0.863431 3.163245 -1.452778
v 0.531023 -6.544954 0.397401
v 0.331027 -7.005004 -0.213930
v 0.164341 -7.005004 -0.316706
v 0.423166 -6.492315 0.576041
v 0.000000 -7.155258 0.067293
v 0.000000 -7.005004 -0.327853
v 1.222930 5.119375 0.021044
v 1.380134 -0.047656 0.021044
v 1.017034 -4.914602 -0.207421
v 0.594552 8.173049 0.000000
v 1.004613 -5.037636 -0.218537
v 0.430538 9.994996 0.000000
v 1.380134 3.163245 0.021044
v 0.556769 -6.737787 -0.333160
v 0.000000 -5.893565 0.026744
v 0.164341 -6.254764 0.030746
v 0.636125 -5.872561 0.170419
v 0.339962 -5.872561 0.961816
v 0.431984 -6.938377 -0.048591
v 0.256288 -7.155258 0.064150
v 0.649938 -6.293923 0.487620
v 0.594833 -6.296029 0.580523
v 0.583981 -6.420164 0.478649
v 0.543093 -6.422932 0.531579
v 0.177590 10.977233 -1.029917
v 0.000000 12.611287 -2.493408
v 0.000000 11.952014 0.000000
v 0.000000 13.485168 2.742697
v 0.177590 10.977233 1.029917
v 0.177590 10.977233 0.000000
v 1.311885 -3.147875 0.037985
v 1.057158 -3.147875 -0.858923
v 0.633754 -6.005004 -0.255152
v 0.633754 -6.005004 -0.647752
v 1.605722 -3.745616 0.062340
v 1.536764 -3.746090 -1.104087
v 1.593301 -3.868650 0.034372
v 1.534667 -3.869191 -1.083103
v 0.293712 -6.881921 0.255438
v 0.000000 -6.785580 0.373459
v 0.158180 -7.156354 0.183141
v 0.000000 -7.187600 0.108708
v 0.000000 -7.111341 0.528539
v 0.206961 -7.108429 0.355183
v -1.125407 -0.047656 -1.012362
v -1.125407 -0.047656 1.054451
v -1.052211 5.119375 -1.012362
v -1.052211 5.119375 1.054451
v -0.519340 8.173049 0.722151
v -0.519340 8.173049 -0.722151
v -1.057158 -3.147875 0.934894
v -0.948076 -4.915076 -0.671010
v -0.613237 -6.114476 0.346786
v -0.945979 -5.038177 -0.662670
v -0.121358 4.994996 2.185110
v -0.863431 -0.047656 -1.452778
v -0.863431 5.119375 -1.452778
v -0.121358 -0.005004 2.185110
v -0.430538 9.994996 0.850684
v -0.430538 9.994996 -0.850684
v -0.829306 -3.147875 -1.241167
v -0.113343 -3.005004 1.912883
v -0.466979 -6.005004 -0.935683
v -0.526792 -6.127817 0.699145
v -1.125407 3.163245 -1.012362
v -1.125407 3.163245 1.054451
v -0.121358 3.102101 2.185110
v -0.863431 3.163245 -1.452778
v -0.531023 -6.544954 0.397401
v -0.331027 -7.005004 -0.213930
v -0.164341 -7.005004 -0.316706
v -0.423166 -6.492315 0.576041
v -1.222930 5.119375 0.021044
v -1.380134 -0.047656 0.021044
v -1.017034 -4.914602 -0.207421
v -0.594552 8.173049 0.000000
v -1.004613 -5.037636 -0.218537
v -0.430538 9.994996 0.000000
v -1.380134 3.163245 0.021044
v -0.556769 -6.737787 -0.333160
v -0.164341 -6.254764 0.030746
v -0.636125 -5.872561 0.170419
v -0.339962 -5.872561 0.961816
v -0.431984 -6.938377 -0.048591
v -0.256288 -7.155258 0.064150
v -0.649938 -6.293923 0.487620
v -0.594833 -6.296029 0.580523
v -0.583981 -6.420164 0.478649
v -0.543093 -6.422932 0.531579
v -0.177590 10.977233 -1.029917
v -0.177590 10.977233 1.029917
v -0.177590 10.977233 0.000000
v -1.311885 -3.147875 0.037985
v -1.057158 -3.147875 -0.858923
v -0.633754 -6.005004 -0.255152
v -0.633754 -6.005004 -0.647752
v -1.605722 -3.745616 0.062340
v -1.536764 -3.746090 -1.104087
v -1.593301 -3.868650 0.034372
v -1.534667 -3.869191 -1.083103
v -0.293712 -6.881921 0.255438
v -0.158180 -7.156354 0.183141
v -0.206961 -7.108429 0.355183
vn 0.9746 0.1998 -0.1015
vn 0.9709 -0.0000 0.2393
vn 0.8594 -0.0000 -0.5112
vn 0.9810 -0.0000 0.1938
vn 0.9618 -0.0197 0.2731
vn 0.9907 0.0892 0.1032
vn 0.5027 0.1498 -0.8514
vn 0.9500 0.0243 0.3113
vn 0.8621 -0.0968 0.4973
vn 0.8620 -0.0481 0.5045
vn 0.8586 -0.0443 -0.5107
vn 0.1372 -0.5722 0.8086
vn 0.9691 -0.2370 0.0684
vn 0.8477 -0.1615 -0.5053
vn 0.0650 -0.2235 -0.9725
vn 0.0571 -0.5376 -0.8413
vn 0.4530 -0.0773 -0.8881
vn 0.7158 -0.0426 0.6970
vn 0.9101 -0.2362 0.3406
vn 0.7946 0.1466 0.5891
vn 0.9016 0.1941 -0.3865
vn 0.9684 0.2494 -0.0000
vn 0.7477 -0.0000 0.6640
vn 0.4544 -0.0000 -0.8908
vn 0.7701 0.0288 0.6372
vn 0.9191 -0.0000 -0.3940
vn 0.9680 0.0778 0.2386
vn -0.0462 -0.0321 -0.9984
vn -0.8070 -0.2541 -0.5330
vn 0.9938 -0.1074 0.0279
vn 0.4321 -0.3964 0.8100
vn 0.7511 -0.4966 -0.4350
vn -0.0210 -0.3925 -0.9195
vn -0.4883 -0.3667 0.7919
vn -0.0614 -0.4194 0.9057
vn 0.9860 0.0369 -0.1629
vn 0.5083 -0.0262 -0.8608
vn -0.5138 -0.0493 -0.8565
vn 0.9988 0.0487 -0.0000
vn 0.9704 -0.0332 -0.2392
vn 0.9709 -0.0000 -0.2393
vn 0.9693 0.1866 0.1601
vn 0.8908 0.3089 0.3333
vn 0.8120 -0.5153 0.2742
vn -0.3347 -0.5299 0.7792
vn 0.9807 -0.1669 -0.1017
vn 0.7774 -0.4382 0.4512
vn 0.7381 0.5035 0.4492
vn 0.9351 -0.2120 -0.2839
vn 0.5634 -0.6358 0.5275
vn 0.9838 0.1792 -0.0000
vn 0.9893 0.1409 0.0373
vn 0.9391 -0.1460 0.3112
vn 0.9548 -0.1217 -0.2712
vn 0.9516 -0.3073 -0.0000
vn 0.3486 -0.1204 -0.9295
vn 0.1817 -0.1067 0.9775
vn 0.9983 -0.0259 -0.0524
vn -0.8840 0.4645 0.0521
vn -0.0083 -0.2209 0.9753
vn 0.8969 -0.4262 -0.1179
vn 0.1916 -0.9582 0.2126
vn 0.4068 -0.7200 -0.5623
vn 0.4256 0.2232 0.8770
vn 0.6785 -0.4813 0.5550
vn -0.9697 0.1844 -0.1602
vn -0.9709 -0.0000 0.2393
vn -0.8594 -0.0000 -0.5112
vn -0.9810 -0.0000 0.1938
vn -0.9705 -0.0306 0.2392
vn -0.9988 0.0487 -0.0000
vn -0.4497 0.1426 -0.8817
vn -0.7457 0.1993 0.6358
vn -0.8621 -0.0968 0.4973
vn -0.9715 -0.0452 0.2326
vn -0.8586 -0.0443 -0.5107
vn -0.3553 -0.5962 0.7199
vn -0.9384 -0.2198 0.2665
vn -0.8477 -0.1615 -0.5053
vn -0.4140 -0.1485 -0.8981
vn -0.0563 -0.5377 -0.8412
vn -0.4530 -0.0773 -0.8881
vn -0.7451 -0.0622 0.6640
vn -0.6953 -0.1761 0.6968
vn -0.7946 0.1466 0.5891
vn -0.9016 0.1941 -0.3865
vn -0.9684 0.2494 -0.0000
vn -0.7477 -0.0000 0.6640
vn -0.4544 -0.0000 -0.8908
vn -0.7701 0.0288 0.6372
vn -0.7926 0.1625 0.5876
vn -0.9191 -0.0000 -0.3940
vn -0.9860 0.0369 0.1629
vn 0.0123 -0.0383 -0.9992
vn 0.8070 -0.2541 -0.5330
vn -0.9938 -0.1074 0.0279
vn -0.4321 -0.3964 0.8100
vn -0.7511 -0.4966 -0.4350
vn -0.9945 -0.1045 -0.0000
vn -0.5812 -0.1327 0.8029
vn 0.0614 -0.4194 0.9057
vn -0.9860 0.0369 -0.1629
vn -0.5083 -0.0262 -0.8608
vn 0.5138 -0.0493 -0.8565
vn -0.9704 -0.0332 -0.2392
vn -0.9709 -0.0000 -0.2393
vn -0.9693 0.1866 0.1601
vn -0.9670 0.0838 0.2404
vn -0.6162 -0.5726 0.5408
vn 0.3347 -0.5299 0.7792
vn -0.9801 -0.1928 -0.0476
vn -0.7774 -0.4382 0.4512
vn -0.9469 0.2135 0.2404
vn -0.9351 -0.2120 -0.2839
vn -0.5634 -0.6358 0.5275
vn -0.9915 0.1136 -0.0635
vn -0.9893 0.1409 0.0373
vn -0.5083 -0.0262 0.8608
vn -0.9862 -0.0765 -0.1466
vn -0.9283 -0.3513 -0.1221
vn -0.1682 -0.0695 -0.9833
vn -0.1817 -0.1067 0.9775
vn -0.9945 -0.0870 -0.0588
vn 0.8972 0.4211 0.1330
vn 0.2982 -0.0560 0.9529
vn -0.8969 -0.4262 -0.1179
vn -0.1916 -0.9582 0.2126
vn 0.0001 -1.0000 -0.0093
vn -0.4256 0.2232 0.8770
vn -0.6785 -0.4813 0.5550
vn 0.9697 0.1844 -0.1602
vn 0.9986 0.0419 -0.0325
vn 0.9705 -0.0306 0.2392
vn 0.4497 0.1426 -0.8817
vn 0.7457 0.1993 0.6358
vn 0.2821 -0.3288 0.9013
vn 0.9715 -0.0452 0.2326
vn 0.8581 -0.0442 -0.5115
vn 0.3553 -0.5962 0.7199
vn 0.9384 -0.2198 0.2665
vn 0.8537 -0.1631 -0.4945
vn 0.4140 -0.1485 -0.8981
vn 0.0563 -0.5377 -0.8412
vn 0.4177 -0.0664 -0.9062
vn 0.7451 -0.0622 0.6640
vn 0.6953 -0.1761 0.6968
vn 0.4987 0.1946 0.8446
vn 0.9775 0.0619 0.2017
vn 0.7926 0.1625 0.5876
vn 0.8590 0.0321 -0.5110
vn 0.9860 0.0369 0.1629
vn -0.0123 -0.0383 -0.9992
vn -0.4662 -0.0803 -0.8810
vn 0.9404 -0.2313 0.2493
vn 0.5366 -0.4851 0.6905
vn 0.4641 -0.4670 -0.7527
vn 0.9945 -0.1045 -0.0000
vn 0.5812 -0.1327 0.8029
vn -0.5686 -0.2500 0.7837
vn 0.9680 0.0778 -0.2386
vn 0.9476 -0.1498 -0.2822
vn -0.3759 -0.1495 -0.9145
vn 0.9907 0.0892 -0.1032
vn 0.9617 -0.0227 -0.2731
vn 0.9743 0.2012 0.1015
vn 0.9670 0.0838 0.2404
vn 0.6162 -0.5726 0.5408
vn 0.5150 -0.4021 0.7570
vn -0.4731 -0.4608 0.7509
vn 0.9801 -0.1928 -0.0476
vn 0.7035 -0.4866 0.5180
vn 0.9469 0.2135 0.2404
vn 0.7189 -0.3322 -0.6106
vn 0.6550 -0.5874 0.4753
vn 0.9915 0.1136 -0.0635
vn 0.5083 -0.0262 0.8608
vn 0.9862 -0.0765 -0.1466
vn 0.9283 -0.3513 -0.1221
vn 0.1682 -0.0695 -0.9833
vn 0.4492 -0.1960 0.8717
vn 0.9945 -0.0870 -0.0588
vn -0.8972 0.4211 0.1330
vn -0.2982 -0.0560 0.9529
vn 0.8854 -0.4625 -0.0462
vn 0.1096 -0.9780 0.1776
vn -0.0001 -1.0000 -0.0093
vn 0.6001 0.3438 0.7222
vn 0.9019 -0.4080 -0.1421
vn -0.9746 0.1998 -0.1015
vn -0.9986 0.0419 -0.0325
vn -0.9618 -0.0197 0.2731
vn -0.9907 0.0892 0.1032
vn -0.5027 0.1498 -0.8514
vn -0.9500 0.0243 0.3113
vn -0.2821 -0.3288 0.9013
vn -0.8620 -0.0481 0.5045
vn -0.8581 -0.0442 -0.5115
vn -0.1372 -0.5722 0.8086
vn -0.9691 -0.2370 0.0684
vn -0.8537 -0.1631 -0.4945
vn -0.0650 -0.2235 -0.9725
vn -0.0571 -0.5376 -0.8413
vn -0.4177 -0.0664 -0.9062
vn -0.7158 -0.0426 0.6970
vn -0.9101 -0.2362 0.3406
vn -0.4987 0.1946 0.8446
vn -0.9775 0.0619 0.2017
vn -0.8590 0.0321 -0.5110
vn -0.9680 0.0778 0.2386
vn 0.0462 -0.0321 -0.9984
vn 0.4662 -0.0803 -0.8810
vn -0.9404 -0.2313 0.2493
vn -0.5366 -0.4851 0.6905
vn -0.4641 -0.4670 -0.7527
vn 0.0210 -0.3925 -0.9195
vn 0.4883 -0.3667 0.7919
vn 0.5686 -0.2500 0.7837
vn -0.9680 0.0778 -0.2386
vn -0.9476 -0.1498 -0.2822
vn 0.3759 -0.1495 -0.9145
vn -0.9907 0.0892 -0.1032
vn -0.9617 -0.0227 -0.2731
vn -0.9743 0.2012 0.1015
vn -0.8908 0.3089 0.3333
vn -0.8120 -0.5153 0.2742
vn 0.4731 -0.4608 0.7509
vn -0.5150 -0.4021 0.7570
vn -0.9807 -0.1669 -0.1017
vn -0.7035 -0.4866 0.5180
vn -0.7381 0.5035 0.4492
vn -0.7189 -0.3322 -0.6106
vn -0.6550 -0.5874 0.4753
vn -0.9838 0.1792 -0.0000
vn -0.9391 -0.1460 0.3112
vn -0.9548 -0.1217 -0.2712
vn -0.9516 -0.3073 -0.0000
vn -0.3486 -0.1204 -0.9295
vn -0.4492 -0.1960 0.8717
vn -0.9983 -0.0259 -0.0524
vn 0.8840 0.4645 0.0521
vn 0.0083 -0.2209 0.9753
vn -0.8854 -0.4625 -0.0462
vn -0.1096 -0.9780 0.1776
vn -0.4068 -0.7200 -0.5623
vn -0.6001 0.3438 0.7222
vn -0.9019 -0.4080 -0.1421
vt 0.570143 0.327756
vt 0.469180 0.323142
vt 0.562244 0.571365
vt 0.464555 0.571165
vt 0.310338 0.423574
vt 0.630645 0.576425
vt 0.064295 0.428053
vt 0.384602 0.571946
vt 0.640468 0.328931
vt 0.320161 0.671069
vt 0.320454 0.505301
vt 0.000146 0.494699
vt 0.453989 0.814639
vt 0.133682 0.185361
vt 0.479732 0.722070
vt 0.551977 0.720277
vt 0.584619 0.810864
vt 0.264312 0.189136
vt 0.483500 0.181366
vt 0.694464 0.008261
vt 0.558840 0.109690
vt 0.667666 0.134706
vt 0.632796 0.180103
vt 0.312489 0.819897
vt 0.411893 0.176000
vt 0.091585 0.824000
vt 0.517083 0.052056
vt 0.662329 0.382925
vt 0.558047 0.104667
vt 0.691163 0.002381
vt 0.597047 0.051923
vt 0.276740 0.948077
vt 0.474621 0.045682
vt 0.154313 0.954318
vt 0.394499 0.570930
vt 0.594359 0.328451
vt 0.584722 0.572504
vt 0.397845 0.319609
vt 0.477848 0.811711
vt 0.560537 0.809058
vt 0.589670 0.184119
vt 0.421913 0.178636
vt 0.577196 0.059945
vt 0.502944 0.049668
vt 0.662329 0.402445
vt 0.564782 0.479462
vt 0.462757 0.477372
vt 0.357483 0.494702
vt 0.037176 0.505297
vt 0.635616 0.482463
vt 0.315309 0.517536
vt 0.386196 0.475889
vt 0.589141 0.480472
vt 0.516379 0.034180
vt 0.640761 0.388100
vt 0.552216 0.007073
vt 0.712231 0.327189
vt 0.712575 0.312646
vt 0.561272 0.005087
vt 0.642029 0.399749
vt 0.507663 0.034864
vt 0.670276 0.336891
vt 0.640761 0.301369
vt 0.670276 0.382238
vt 0.568428 0.001373
vt 0.248121 0.998627
vt 0.713882 0.303965
vt 0.513386 0.570082
vt 0.519676 0.325870
vt 0.540988 0.109752
vt 0.646263 0.130816
vt 0.661551 0.005263
vt 0.516019 0.720654
vt 0.542160 0.104905
vt 0.665817 0.000146
vt 0.519035 0.810561
vt 0.514206 0.477778
vt 0.548851 0.023985
vt 0.686300 0.336204
vt 0.678821 0.302720
vt 0.677911 0.307327
vt 0.523908 0.063780
vt 0.486001 0.057428
vt 0.659100 0.330619
vt 0.534843 0.013266
vt 0.641905 0.315954
vt 0.525698 0.000146
vt 0.670276 0.349538
vt 0.654357 0.390890
vt 0.654061 0.395533
vt 0.648043 0.391379
vt 0.647412 0.394530
vt 0.573430 0.859623
vt 0.640468 0.948145
vt 0.320161 0.051855
vt 0.521905 0.908889
vt 0.201598 0.091110
vt 0.400154 0.999853
vt 0.079847 0.000146
vt 0.467673 0.862568
vt 0.520553 0.861123
vt 0.524335 0.184062
vt 0.569315 0.184526
vt 0.542964 0.058841
vt 0.562630 0.060258
vt 0.640761 0.069035
vt 0.694464 0.076599
vt 0.644678 0.063929
vt 0.691802 0.070302
vt 0.517063 0.013454
vt 0.656974 0.359418
vt 0.502878 0.010588
vt 0.640761 0.355779
vt 0.182571 0.989412
vt 0.640761 0.363349
vt 0.664504 0.344606
vt 0.667738 0.336497
vt 0.667738 0.382632
vt 0.647122 0.338858
vt 0.647122 0.380270
vt 0.656603 0.347223
vt 0.249836 0.672243
vt 0.148873 0.676858
vt 0.241936 0.428634
vt 0.144248 0.428834
vt 0.159425 0.277930
vt 0.231670 0.279723
vt 0.163193 0.818634
vt 0.694464 0.261444
vt 0.238532 0.890310
vt 0.667666 0.134998
vt 0.196776 0.947944
vt 0.662329 0.422258
vt 0.237740 0.895333
vt 0.691163 0.267323
vt 0.074192 0.429070
vt 0.274052 0.671549
vt 0.264415 0.427495
vt 0.077538 0.680391
vt 0.157541 0.188288
vt 0.240230 0.190942
vt 0.269362 0.815881
vt 0.101606 0.821363
vt 0.256888 0.940055
vt 0.662329 0.402738
vt 0.182637 0.950332
vt 0.244475 0.520537
vt 0.142450 0.522627
vt 0.065889 0.524111
vt 0.268834 0.519527
vt 0.196072 0.965820
vt 0.640761 0.417082
vt 0.231909 0.992927
vt 0.713882 0.280682
vt 0.240964 0.994913
vt 0.713194 0.295213
vt 0.642029 0.405433
vt 0.187356 0.965136
vt 0.193079 0.429917
vt 0.199368 0.674129
vt 0.646263 0.138888
vt 0.220681 0.890248
vt 0.661551 0.264441
vt 0.195712 0.279346
vt 0.221853 0.895094
vt 0.665817 0.269558
vt 0.198728 0.189438
vt 0.193899 0.522221
vt 0.688655 0.269851
vt 0.228544 0.976015
vt 0.678240 0.298060
vt 0.203601 0.936220
vt 0.165693 0.942572
vt 0.661129 0.273492
vt 0.214536 0.986733
vt 0.670276 0.369590
vt 0.642936 0.286901
vt 0.205391 0.999854
vt 0.654357 0.414292
vt 0.654061 0.409649
vt 0.648043 0.413804
vt 0.647412 0.410652
vt 0.253123 0.140377
vt 0.147366 0.137432
vt 0.200246 0.138877
vt 0.204028 0.815938
vt 0.249008 0.815474
vt 0.222656 0.941159
vt 0.242322 0.939742
vt 0.640761 0.200669
vt 0.694464 0.193105
vt 0.644678 0.205775
vt 0.691802 0.199402
vt 0.196755 0.986545
vt 0.656974 0.359711
vt 0.664504 0.374522
vt 0.656603 0.371906
s 0
f 43/68/1 11/16/1 46/73/1
f 32/47/2 44/69/2 49/77/2
f 31/46/3 22/36/3 36/53/3
f 33/48/4 24/38/4 35/52/4
f 44/69/5 13/19/5 67/102/5
f 48/76/6 10/15/6 46/73/6
f 23/37/7 12/17/7 26/40/7
f 21/35/8 10/15/8 25/39/8
f 16/25/9 54/83/9 28/42/9
f 24/38/10 16/25/10 28/42/10
f 1/1/11 27/41/11 22/36/11
f 54/83/12 76/112/12 75/110/12
f 67/102/13 53/82/13 69/104/13
f 68/103/14 29/43/14 27/41/14
f 15/23/15 29/43/15 19/31/15
f 19/31/16 39/59/16 42/65/16
f 22/36/17 15/23/17 7/9/17
f 2/2/18 28/42/18 13/19/18
f 13/19/19 54/83/19 53/82/19
f 21/35/20 9/13/20 6/8/20
f 23/37/21 11/16/21 3/3/21
f 26/40/22 66/101/22 48/76/22
f 35/52/23 2/2/23 32/47/23
f 36/53/24 7/9/24 34/50/24
f 23/37/24 34/50/24 5/6/24
f 21/35/25 32/47/25 4/4/25
f 21/35/4 33/48/4 35/52/4
f 3/3/26 36/53/26 23/37/26
f 43/68/27 32/47/27 49/77/27
f 52/81/28 41/63/28 51/80/28
f 55/84/29 52/81/29 50/79/29
f 53/82/30 50/78/30 69/104/30
f 40/60/31 58/90/31 30/45/31
f 70/105/32 39/59/32 29/43/32
f 70/105/33 50/78/33 38/56/33
f 38/57/34 52/81/34 39/58/34
f 52/81/35 42/67/35 39/58/35
f 43/68/36 31/46/36 3/3/36
f 12/17/37 61/93/37 26/40/37
f 14/20/38 74/109/38 18/30/38
f 48/76/39 11/16/39 26/40/39
f 44/69/40 68/103/40 1/1/40
f 49/77/41 1/1/41 31/46/41
f 43/68/42 10/15/42 4/4/42
f 30/44/43 53/82/43 54/83/43
f 37/54/44 56/87/44 55/85/44
f 40/61/45 54/83/45 75/110/45
f 17/27/46 55/85/46 53/82/46
f 58/90/47 59/91/47 57/89/47
f 17/28/48 58/90/48 57/89/48
f 17/28/49 59/91/49 37/55/49
f 37/55/50 60/92/50 40/60/50
f 63/96/51 65/100/51 66/101/51
f 63/96/52 61/93/52 62/94/52
f 25/39/22 66/101/22 65/100/22
f 9/13/53 65/100/53 64/98/53
f 45/70/54 68/103/54 67/102/54
f 18/29/55 69/104/55 70/105/55
f 14/21/56 70/105/56 68/103/56
f 45/70/57 69/104/57 47/74/57
f 72/107/58 73/108/58 74/109/58
f 14/22/59 71/106/59 72/107/59
f 45/72/60 73/108/60 71/106/60
f 18/30/61 73/108/61 47/75/61
f 79/119/62 77/116/62 80/121/62
f 41/62/63 77/116/63 78/117/63
f 76/113/64 80/121/64 75/111/64
f 75/111/65 77/116/65 56/88/65
f 109/159/66 86/127/66 83/124/66
f 110/160/67 102/148/67 115/168/67
f 92/137/68 101/147/68 104/150/68
f 94/139/69 33/49/69 103/149/69
f 110/160/70 87/128/70 82/123/70
f 114/167/71 85/126/71 95/140/71
f 93/138/72 12/18/72 5/5/72
f 91/136/73 85/126/73 84/125/73
f 119/173/74 16/26/74 98/143/74
f 94/139/75 16/26/75 8/12/75
f 97/142/76 81/122/76 92/137/76
f 119/173/77 76/114/77 20/34/77
f 129/186/78 118/172/78 87/128/78
f 99/144/79 130/187/79 97/142/79
f 15/24/80 99/144/80 97/142/80
f 19/32/81 107/155/81 99/144/81
f 15/24/82 92/137/82 7/10/82
f 82/123/83 98/143/83 94/139/83
f 87/128/84 119/173/84 98/143/84
f 9/14/85 91/136/85 6/7/85
f 86/127/86 93/138/86 83/124/86
f 128/185/87 96/141/87 114/167/87
f 82/123/88 103/149/88 102/148/88
f 7/10/89 104/150/89 34/51/89
f 34/51/89 93/138/89 5/5/89
f 102/148/90 91/136/90 84/125/90
f 91/136/91 33/49/91 6/7/91
f 104/150/92 83/124/92 93/138/92
f 109/159/93 102/148/93 84/125/93
f 117/171/94 41/63/94 121/177/94
f 117/171/95 120/174/95 116/169/95
f 116/170/96 118/172/96 131/188/96
f 123/180/97 108/157/97 100/145/97
f 107/155/98 132/189/98 99/144/98
f 132/189/99 116/170/99 131/188/99
f 106/154/100 117/171/100 116/169/100
f 42/67/101 117/171/101 107/156/101
f 101/147/102 109/159/102 83/124/102
f 126/183/103 12/18/103 96/141/103
f 136/193/104 88/129/104 90/135/104
f 86/127/71 114/167/71 96/141/71
f 130/187/105 110/160/105 81/122/105
f 81/122/106 115/168/106 101/147/106
f 85/126/107 109/159/107 84/125/107
f 100/146/108 118/172/108 89/132/108
f 105/151/109 121/178/109 108/158/109
f 108/158/110 137/194/110 119/173/110
f 89/132/111 120/175/111 105/151/111
f 124/181/112 123/180/112 122/179/112
f 89/133/113 123/180/113 100/145/113
f 124/181/114 89/133/114 105/152/114
f 125/182/115 105/152/115 108/157/115
f 63/97/116 127/184/116 64/99/116
f 126/183/117 63/97/117 62/95/117
f 95/140/87 128/185/87 114/167/87
f 9/14/118 127/184/118 95/140/118
f 111/162/119 130/187/119 88/130/119
f 90/134/120 131/188/120 113/165/120
f 88/130/121 132/189/121 90/134/121
f 131/188/122 111/162/122 113/165/122
f 134/191/123 135/192/123 133/190/123
f 88/131/124 133/190/124 111/161/124
f 111/163/125 135/192/125 113/166/125
f 135/192/126 90/135/126 113/166/126
f 138/196/127 79/120/127 139/197/127
f 41/64/128 138/196/128 121/176/128
f 139/197/129 76/115/129 137/195/129
f 138/196/130 137/195/130 121/176/130
f 43/68/131 3/3/131 11/16/131
f 32/47/2 2/2/2 44/69/2
f 31/46/3 1/1/3 22/36/3
f 33/48/132 8/11/132 24/38/132
f 44/69/133 2/2/133 13/19/133
f 48/76/39 25/39/39 10/15/39
f 23/37/134 5/6/134 12/17/134
f 21/35/135 4/4/135 10/15/135
f 16/25/136 20/33/136 54/83/136
f 24/38/137 8/11/137 16/25/137
f 1/1/138 68/103/138 27/41/138
f 54/83/139 20/33/139 76/112/139
f 67/102/140 13/19/140 53/82/140
f 68/103/141 70/105/141 29/43/141
f 15/23/142 27/41/142 29/43/142
f 19/31/143 29/43/143 39/59/143
f 22/36/144 27/41/144 15/23/144
f 2/2/145 24/38/145 28/42/145
f 13/19/146 28/42/146 54/83/146
f 21/35/147 25/39/147 9/13/147
f 23/37/148 26/40/148 11/16/148
f 26/40/22 61/93/22 66/101/22
f 35/52/23 24/38/23 2/2/23
f 36/53/24 22/36/24 7/9/24
f 23/37/24 36/53/24 34/50/24
f 21/35/23 35/52/23 32/47/23
f 21/35/149 6/8/149 33/48/149
f 3/3/150 31/46/150 36/53/150
f 43/68/151 4/4/151 32/47/151
f 52/81/152 56/86/152 41/63/152
f 55/84/153 56/86/153 52/81/153
f 53/82/154 55/85/154 50/78/154
f 40/60/155 60/92/155 58/90/155
f 70/105/156 38/56/156 39/59/156
f 70/105/157 69/104/157 50/78/157
f 38/57/158 50/79/158 52/81/158
f 52/81/159 51/80/159 42/67/159
f 43/68/160 49/77/160 31/46/160
f 12/17/161 62/94/161 61/93/161
f 14/20/162 72/107/162 74/109/162
f 48/76/163 46/73/163 11/16/163
f 44/69/164 67/102/164 68/103/164
f 49/77/41 44/69/41 1/1/41
f 43/68/165 46/73/165 10/15/165
f 30/44/166 17/27/166 53/82/166
f 37/54/167 40/61/167 56/87/167
f 40/61/168 30/44/168 54/83/168
f 75/110/169 56/87/169 40/61/169
f 17/27/170 37/54/170 55/85/170
f 58/90/171 60/92/171 59/91/171
f 17/28/172 30/45/172 58/90/172
f 17/28/173 57/89/173 59/91/173
f 37/55/174 59/91/174 60/92/174
f 63/96/175 64/98/175 65/100/175
f 63/96/51 66/101/51 61/93/51
f 25/39/22 48/76/22 66/101/22
f 9/13/176 25/39/176 65/100/176
f 45/70/177 14/21/177 68/103/177
f 18/29/178 47/74/178 69/104/178
f 14/21/179 18/29/179 70/105/179
f 45/70/180 67/102/180 69/104/180
f 72/107/181 71/106/181 73/108/181
f 14/22/182 45/71/182 71/106/182
f 45/72/183 47/75/183 73/108/183
f 18/30/184 74/109/184 73/108/184
f 79/119/185 78/117/185 77/116/185
f 41/62/186 56/88/186 77/116/186
f 76/113/187 79/119/187 80/121/187
f 75/111/188 80/121/188 77/116/188
f 109/159/189 112/164/189 86/127/189
f 110/160/67 82/123/67 102/148/67
f 92/137/68 81/122/68 101/147/68
f 94/139/190 8/12/190 33/49/190
f 110/160/191 129/186/191 87/128/191
f 114/167/192 112/164/192 85/126/192
f 93/138/193 96/141/193 12/18/193
f 91/136/194 95/140/194 85/126/194
f 119/173/195 20/34/195 16/26/195
f 94/139/196 98/143/196 16/26/196
f 97/142/197 130/187/197 81/122/197
f 119/173/198 137/194/198 76/114/198
f 129/186/199 131/188/199 118/172/199
f 99/144/200 132/189/200 130/187/200
f 15/24/201 19/32/201 99/144/201
f 19/32/202 42/66/202 107/155/202
f 15/24/203 97/142/203 92/137/203
f 82/123/204 87/128/204 98/143/204
f 87/128/205 118/172/205 119/173/205
f 9/14/206 95/140/206 91/136/206
f 86/127/207 96/141/207 93/138/207
f 128/185/87 126/183/87 96/141/87
f 82/123/88 94/139/88 103/149/88
f 7/10/89 92/137/89 104/150/89
f 34/51/89 104/150/89 93/138/89
f 102/148/88 103/149/88 91/136/88
f 91/136/69 103/149/69 33/49/69
f 104/150/208 101/147/208 83/124/208
f 109/159/209 115/168/209 102/148/209
f 117/171/210 51/80/210 41/63/210
f 117/171/211 121/177/211 120/174/211
f 116/170/212 120/175/212 118/172/212
f 123/180/213 125/182/213 108/157/213
f 107/155/214 106/153/214 132/189/214
f 132/189/215 106/153/215 116/170/215
f 106/154/216 107/156/216 117/171/216
f 42/67/217 51/80/217 117/171/217
f 101/147/218 115/168/218 109/159/218
f 126/183/219 62/95/219 12/18/219
f 136/193/220 134/191/220 88/129/220
f 86/127/221 112/164/221 114/167/221
f 130/187/222 129/186/222 110/160/222
f 81/122/106 110/160/106 115/168/106
f 85/126/223 112/164/223 109/159/223
f 100/146/224 119/173/224 118/172/224
f 105/151/225 120/175/225 121/178/225
f 108/158/226 121/178/226 137/194/226
f 119/173/227 100/146/227 108/158/227
f 89/132/228 118/172/228 120/175/228
f 124/181/229 125/182/229 123/180/229
f 89/133/230 122/179/230 123/180/230
f 124/181/231 122/179/231 89/133/231
f 125/182/232 124/181/232 105/152/232
f 63/97/233 128/185/233 127/184/233
f 126/183/233 128/185/233 63/97/233
f 95/140/87 127/184/87 128/185/87
f 9/14/234 64/99/234 127/184/234
f 111/162/235 129/186/235 130/187/235
f 90/134/236 132/189/236 131/188/236
f 88/130/237 130/187/237 132/189/237
f 131/188/238 129/186/238 111/162/238
f 134/191/239 136/193/239 135/192/239
f 88/131/240 134/191/240 133/190/240
f 111/163/241 133/190/241 135/192/241
f 135/192/242 136/193/242 90/135/242
f 138/196/243 78/118/243 79/120/243
f 41/64/244 78/118/244 138/196/244
f 139/197/245 79/120/245 76/115/245
f 138/196/246 139/197/246 137/195/246
