# Blender 3.4.0
# www.blender.org
o Fins_2
v 0.078581 -1.961663 0.841324
v 0.065727 -1.647189 1.398847
v 0.078581 -0.039123 0.841324
v 0.065727 -0.353597 1.398847
v 0.000000 -0.039123 0.841324
v 0.000000 -0.245658 1.401690
v 0.000000 -1.961663 0.841324
v 0.000000 -1.652619 1.442552
v 0.754058 -1.913594 -0.593756
v 1.673126 -1.070740 -0.974447
v 0.934302 -1.913594 -0.158608
v 1.631819 -1.300296 -0.637319
v 0.754058 -1.837612 -0.593756
v 1.673126 -0.994758 -0.974447
v 0.934302 -1.837612 -0.158608
v 1.631819 -1.224314 -0.637319
v 0.000000 2.414437 2.018153
v 0.073256 -0.276050 1.543151
v 0.073256 -1.340035 1.641360
v 0.000000 -1.949327 1.904020
v 0.000000 0.113293 2.006592
v 0.066651 -0.239939 1.786334
v 0.066651 -1.046035 1.786334
v 0.000000 -0.832190 1.998175
v 2.041319 -0.478846 -0.828480
v 2.027732 -0.554354 -0.751448
v 2.027732 -0.529361 -0.751448
v 2.041319 -0.453853 -0.828480
v -0.078581 -1.961663 0.841324
v -0.065727 -1.647189 1.398847
v -0.078581 -0.039123 0.841324
v -0.065727 -0.353597 1.398847
v -0.754058 -1.913594 -0.593756
v -1.673126 -1.070740 -0.974447
v -0.934302 -1.913594 -0.158608
v -1.631819 -1.300296 -0.637319
v -0.754058 -1.837612 -0.593756
v -1.673126 -0.994758 -0.974447
v -0.934302 -1.837612 -0.158608
v -1.631819 -1.224314 -0.637319
v -0.073256 -0.276050 1.543151
v -0.073256 -1.340035 1.641360
v -0.066651 -0.239939 1.786334
v -0.066651 -1.046035 1.786334
v -2.041319 -0.478846 -0.828480
v -2.027732 -0.554354 -0.751448
v -2.027732 -0.529361 -0.751448
v -2.041319 -0.453853 -0.828480
vn -0.0000 0.9383 0.3458
vn 0.9997 -0.0000 0.0230
vn -0.0000 -0.0000 -1.0000
vn 0.8081 0.5003 -0.3110
vn -0.0000 -0.8710 0.4913
vn 0.5501 -0.8034 -0.2278
vn 0.5659 -0.0000 0.8245
vn -0.5501 0.8034 0.2278
vn -0.3827 -0.0000 -0.9239
vn -0.9239 -0.0000 0.3827
vn -0.8213 0.4730 0.3188
vn 0.9453 -0.0274 0.3251
vn 0.9810 -0.1632 -0.1049
vn 0.9995 -0.0000 -0.0310
vn 0.9539 -0.0000 0.3001
vn 0.9826 0.1860 -0.0009
vn 0.9993 0.0035 0.0384
vn 0.9848 -0.0000 0.1737
vn 0.8458 -0.4834 -0.2255
vn 0.3685 -0.0000 -0.9296
vn 0.2770 -0.0000 0.9609
vn -0.9997 -0.0000 0.0230
vn -0.8081 0.5003 -0.3110
vn -0.4978 -0.7441 -0.4457
vn -0.5659 -0.0000 0.8245
vn 0.5501 0.8034 0.2278
vn 0.3827 -0.0000 -0.9239
vn 0.9239 -0.0000 0.3827
vn 0.8242 0.5100 0.2463
vn -0.9869 -0.0530 0.1524
vn -0.4947 -0.5460 0.6761
vn -0.9995 -0.0000 -0.0310
vn -0.9560 -0.0026 0.2935
vn -0.9876 -0.0008 0.1568
vn -0.9993 0.0035 0.0384
vn -0.9848 -0.0000 0.1737
vn -0.8458 -0.4834 -0.2255
vn -0.3685 -0.0000 -0.9296
vn -0.2770 -0.0000 0.9609
vn 0.8193 0.4911 0.2959
vn 0.8921 0.1020 -0.4401
vn 0.3531 -0.8321 0.4277
vn 0.4978 -0.7441 -0.4457
vn -0.4978 0.7441 0.4457
vn -0.8242 0.5100 0.2463
vn 0.9869 -0.0530 0.1524
vn 0.4947 -0.5460 0.6761
vn 0.9988 -0.0046 -0.0496
vn 0.9560 -0.0026 0.2935
vn 0.9876 -0.0008 0.1568
vn 0.9996 -0.0000 0.0272
vn 0.8424 -0.4515 -0.2940
vn -0.8193 0.4911 0.2959
vn -0.8921 0.1020 -0.4401
vn -0.3531 -0.8321 0.4277
vn -0.5501 -0.8034 -0.2278
vn 0.4978 0.7441 0.4457
vn 0.8213 0.4730 0.3188
vn -0.9453 -0.0274 0.3251
vn -0.9810 -0.1632 -0.1049
vn -0.9988 -0.0046 -0.0496
vn -0.9539 -0.0000 0.3001
vn -0.9826 0.1860 -0.0009
vn -0.9996 -0.0000 0.0272
vn -0.8424 -0.4515 -0.2940
vt 0.375000 0.750000
vt 0.625000 0.750000
vt 0.375000 0.500000
vt 0.625000 0.500000
vt 0.375000 0.375000
vt 0.250000 0.500000
vt 0.625000 0.375000
vt 0.250000 0.750000
vt 0.375000 0.875000
vt 0.625000 0.875000
vt 0.375000 1.000000
vt 0.375000 0.000000
vt 0.125000 0.750000
vt 0.625000 1.000000
vt 0.625000 0.000000
vt 0.375000 0.250000
vt 0.125000 0.500000
vt 0.625000 0.250000
vt 0.375000 0.750000
vt 0.625000 0.750000
vt 0.375000 0.500000
vt 0.625000 0.500000
vt 0.625000 0.375000
vt 0.625000 0.500000
vt 0.625000 0.750000
vt 0.625000 0.875000
vt 0.750000 0.500000
vt 0.625000 0.375000
vt 0.625000 0.500000
vt 0.625000 0.750000
vt 0.625000 0.875000
vt 0.750000 0.750000
vt 0.875000 0.750000
vt 0.625000 0.000000
vt 0.625000 1.000000
vt 0.875000 0.500000
vt 0.625000 0.250000
vt 0.625000 0.500000
vt 0.625000 0.750000
vt 0.375000 0.750000
vt 0.625000 0.750000
vt 0.375000 0.500000
vt 0.625000 0.500000
vt 0.375000 0.000000
vt 0.375000 1.000000
vt 0.125000 0.750000
vt 0.625000 1.000000
vt 0.625000 0.000000
vt 0.125000 0.500000
vt 0.375000 0.250000
vt 0.625000 0.250000
vt 0.375000 0.750000
vt 0.625000 0.750000
vt 0.375000 0.500000
vt 0.625000 0.500000
vt 0.625000 0.500000
vt 0.625000 0.750000
vt 0.625000 0.500000
vt 0.625000 0.750000
vt 0.875000 0.750000
vt 0.625000 0.000000
vt 0.625000 1.000000
vt 0.875000 0.500000
vt 0.625000 0.250000
vt 0.625000 0.500000
vt 0.625000 0.750000
s 0
f 6/7/1 3/3/1 5/5/1
f 3/3/2 2/2/2 1/1/2
f 3/3/3 7/8/3 5/6/3
f 6/7/4 18/24/4 4/4/4
f 2/2/5 7/9/5 1/1/5
f 9/12/6 12/18/6 11/16/6
f 12/18/7 15/21/7 11/16/7
f 16/22/8 13/19/8 15/21/8
f 13/19/9 10/14/9 9/11/9
f 15/21/10 9/13/10 11/17/10
f 14/20/11 27/38/11 28/39/11
f 20/26/12 23/30/12 24/31/12
f 8/10/13 19/25/13 20/26/13
f 4/4/14 19/25/14 2/2/14
f 22/29/15 24/32/15 23/30/15
f 18/24/16 21/28/16 22/29/16
f 18/24/17 23/30/17 19/25/17
f 27/38/18 25/33/18 28/39/18
f 10/15/19 26/37/19 12/18/19
f 14/20/20 25/35/20 10/14/20
f 16/22/21 26/37/21 27/38/21
f 31/42/1 6/7/1 5/5/1
f 29/40/22 32/43/22 31/42/22
f 7/8/3 31/42/3 5/6/3
f 41/56/23 6/7/23 32/43/23
f 7/9/5 30/41/5 29/40/5
f 33/44/24 36/51/24 34/48/24
f 39/54/25 36/51/25 35/50/25
f 37/52/26 40/55/26 39/54/26
f 37/52/27 34/47/27 38/53/27
f 33/46/28 39/54/28 35/49/28
f 38/53/29 47/65/29 40/55/29
f 20/26/30 44/59/30 42/57/30
f 8/10/31 42/57/31 30/41/31
f 42/57/32 32/43/32 30/41/32
f 43/58/33 24/32/33 21/27/33
f 41/56/34 21/28/34 17/23/34
f 44/59/35 41/56/35 42/57/35
f 47/65/36 45/60/36 46/63/36
f 46/64/37 34/48/37 36/51/37
f 45/62/38 38/53/38 34/47/38
f 40/55/39 46/64/39 36/51/39
f 6/7/40 4/4/40 3/3/40
f 3/3/2 4/4/2 2/2/2
f 3/3/3 1/1/3 7/8/3
f 6/7/41 17/23/41 18/24/41
f 2/2/42 8/10/42 7/9/42
f 9/12/43 10/15/43 12/18/43
f 12/18/7 16/22/7 15/21/7
f 16/22/44 14/20/44 13/19/44
f 13/19/9 14/20/9 10/14/9
f 15/21/10 13/19/10 9/13/10
f 14/20/45 16/22/45 27/38/45
f 20/26/46 19/25/46 23/30/46
f 8/10/47 2/2/47 19/25/47
f 4/4/48 18/24/48 19/25/48
f 22/29/49 21/27/49 24/32/49
f 18/24/50 17/23/50 21/28/50
f 18/24/51 22/29/51 23/30/51
f 27/38/18 26/36/18 25/33/18
f 10/15/52 25/34/52 26/37/52
f 14/20/20 28/39/20 25/35/20
f 16/22/21 12/18/21 26/37/21
f 31/42/53 32/43/53 6/7/53
f 29/40/22 30/41/22 32/43/22
f 7/8/3 29/40/3 31/42/3
f 41/56/54 17/23/54 6/7/54
f 7/9/55 8/10/55 30/41/55
f 33/44/56 35/50/56 36/51/56
f 39/54/25 40/55/25 36/51/25
f 37/52/57 38/53/57 40/55/57
f 37/52/27 33/45/27 34/47/27
f 33/46/28 37/52/28 39/54/28
f 38/53/58 48/66/58 47/65/58
f 20/26/59 24/31/59 44/59/59
f 8/10/60 20/26/60 42/57/60
f 42/57/61 41/56/61 32/43/61
f 43/58/62 44/59/62 24/32/62
f 41/56/63 43/58/63 21/28/63
f 44/59/64 43/58/64 41/56/64
f 47/65/36 48/66/36 45/60/36
f 46/64/65 45/61/65 34/48/65
f 45/62/38 48/66/38 38/53/38
f 40/55/39 47/65/39 46/64/39
