# Blender 3.4.0
# www.blender.org
o Head_2
v 0.000000 -1.979848 -1.000000
v 0.707107 -1.979848 -0.707107
v 1.000000 -1.979848 0.000000
v 0.707107 -1.979848 0.707107
v 0.000000 -1.979848 1.000000
v 0.661052 -2.841488 0.000000
v 0.000000 -3.644574 -0.004373
v 0.407819 -2.841488 -0.611359
v 0.000000 -3.822888 -0.511184
v 0.000000 -2.841488 -0.864592
v 0.123613 -3.686630 -0.265449
v 0.000000 -5.069038 0.077481
v 0.123613 -3.686630 0.265449
v 0.000000 -5.285099 -0.116797
v 0.252253 -3.686630 0.000000
v 0.000000 -5.136527 -0.362508
v 0.000000 -2.841488 0.864592
v 0.407819 -2.841488 0.611359
v 0.000000 -1.979848 0.000000
v -0.707107 -1.979848 -0.707107
v -1.000000 -1.979848 0.000000
v -0.707107 -1.979848 0.707107
v -0.661052 -2.841488 0.000000
v -0.407819 -2.841488 -0.611359
v -0.123613 -3.686630 -0.265449
v -0.123613 -3.686630 0.265449
v -0.252253 -3.686630 0.000000
v -0.407819 -2.841488 0.611359
vn 0.0287 0.0683 -0.9972
vn -0.0557 -0.2331 0.9709
vn 0.8370 -0.4234 -0.3467
vn 0.9134 -0.1379 -0.3830
vn 0.8995 -0.0299 -0.4359
vn 0.8251 -0.3991 0.3999
vn 0.8912 -0.1384 0.4319
vn 0.5229 -0.1323 -0.8421
vn 0.8683 -0.3416 -0.3597
vn 0.3725 -0.2293 0.8993
vn -0.0000 1.0000 -0.0000
vn 0.4670 -0.4649 0.7522
vn 0.8683 -0.3416 0.3597
vn -0.0287 0.0683 -0.9972
vn 0.0557 -0.2331 0.9709
vn -0.8370 -0.4234 -0.3467
vn -0.4670 -0.4649 -0.7522
vn -0.9008 -0.0488 -0.4315
vn -0.8370 -0.4234 0.3467
vn -0.9686 -0.1664 0.1850
vn -0.3725 -0.2293 -0.8993
vn -0.8683 -0.3416 -0.3597
vn -0.3725 -0.2293 0.8993
vn -0.4670 -0.4649 0.7522
vn -0.8683 -0.3416 0.3597
vn 0.8251 -0.3991 -0.3999
vn 0.4670 -0.4649 -0.7522
vn 0.9008 -0.0488 -0.4315
vn 0.8370 -0.4234 0.3467
vn 0.9686 -0.1664 0.1850
vn 0.3725 -0.2293 -0.8993
vn 0.5229 -0.1323 0.8421
vn 0.9166 -0.1332 0.3770
vn -0.8251 -0.3991 -0.3999
vn -0.9134 -0.1379 -0.3830
vn -0.8995 -0.0299 -0.4359
vn -0.8251 -0.3991 0.3999
vn -0.8912 -0.1384 0.4319
vn -0.5229 -0.1323 -0.8421
vn -0.5229 -0.1323 0.8421
vn -0.9166 -0.1332 0.3770
vt 0.537261 0.871689
vt 0.372929 0.796988
vt 0.272615 0.783913
vt 0.171490 0.786099
vt 0.000093 0.842646
vt 0.280677 0.634562
vt 0.537448 0.337558
vt 0.417573 0.639753
vt 0.436542 0.368484
vt 0.537261 0.630006
vt 0.367587 0.410179
vt 0.307426 0.050351
vt 0.218623 0.401867
vt 0.593226 0.700090
vt 0.364053 0.000093
vt 0.594497 0.338182
vt 0.292542 0.416770
vt 0.594497 0.000093
vt 0.371768 0.032073
vt 0.026124 0.602415
vt 0.144056 0.624971
vt 0.260943 0.999907
vt 0.372929 0.796988
vt 0.272615 0.783913
vt 0.171490 0.786099
vt 0.280677 0.634562
vt 0.417573 0.639753
vt 0.367587 0.410179
vt 0.218623 0.401867
vt 0.594497 0.338182
vt 0.292542 0.416770
vt 0.144056 0.624971
s 0
f 14/14/1 7/7/1 15/16/1
f 7/7/2 16/18/2 15/16/2
f 6/6/3 11/11/3 8/8/3
f 10/10/4 11/11/4 9/9/4
f 15/17/5 9/9/5 11/11/5
f 6/6/6 13/13/6 15/17/6
f 12/12/7 15/17/7 13/13/7
f 1/1/8 8/8/8 10/10/8
f 2/2/9 6/6/9 8/8/9
f 5/5/10 18/21/10 4/4/10
f 2/2/11 19/22/11 3/3/11
f 17/20/12 13/13/12 18/21/12
f 4/4/11 19/22/11 5/5/11
f 4/4/13 6/6/13 3/3/13
f 14/14/14 27/30/14 7/7/14
f 7/7/15 27/30/15 16/18/15
f 25/28/16 23/26/16 24/27/16
f 10/10/17 25/28/17 24/27/17
f 27/31/18 9/9/18 16/19/18
f 23/26/19 26/29/19 28/32/19
f 12/12/20 27/31/20 14/15/20
f 1/1/21 24/27/21 20/23/21
f 20/23/22 23/26/22 21/24/22
f 28/32/23 5/5/23 22/25/23
f 19/22/11 20/23/11 21/24/11
f 26/29/24 17/20/24 28/32/24
f 19/22/11 22/25/11 5/5/11
f 23/26/25 22/25/25 21/24/25
f 6/6/26 15/17/26 11/11/26
f 10/10/27 8/8/27 11/11/27
f 15/17/28 16/19/28 9/9/28
f 6/6/29 18/21/29 13/13/29
f 12/12/30 14/15/30 15/17/30
f 1/1/31 2/2/31 8/8/31
f 2/2/9 3/3/9 6/6/9
f 5/5/32 17/20/32 18/21/32
f 2/2/11 1/1/11 19/22/11
f 17/20/33 12/12/33 13/13/33
f 4/4/11 3/3/11 19/22/11
f 4/4/13 18/21/13 6/6/13
f 25/28/34 27/31/34 23/26/34
f 10/10/35 9/9/35 25/28/35
f 27/31/36 25/28/36 9/9/36
f 23/26/37 27/31/37 26/29/37
f 12/12/38 26/29/38 27/31/38
f 1/1/39 10/10/39 24/27/39
f 20/23/22 24/27/22 23/26/22
f 28/32/40 17/20/40 5/5/40
f 19/22/11 1/1/11 20/23/11
f 26/29/41 12/12/41 17/20/41
f 19/22/11 21/24/11 22/25/11
f 23/26/25 28/32/25 22/25/25
