# Blender 3.4.0
# www.blender.org
o Tail_1
v 0.000000 4.773639 -0.000000
v 0.000000 5.062668 -0.432323
v 0.074632 4.944788 -0.724273
v 0.088749 4.968414 0.964508
v 0.000000 3.850110 0.885097
v 0.236669 3.850110 0.625858
v 0.416577 3.747831 -0.000000
v 0.000000 3.850110 -0.885097
v 0.236669 3.850110 -0.625858
v 0.493934 2.687515 -0.625858
v 0.000000 2.687515 -0.885097
v 0.698528 2.687515 -0.000000
v 0.493934 2.687515 0.625858
v 0.000000 2.687515 0.885097
v 0.000000 5.791883 1.312281
v 0.000000 5.212585 0.338649
v 0.074632 4.968414 0.610077
v 0.000000 2.687515 0.000000
v 0.000000 5.408182 -1.410047
v 0.088749 4.944788 -1.078704
v -0.074632 4.944788 -0.724273
v -0.088749 4.968414 0.964508
v -0.236669 3.850110 0.625858
v -0.416577 3.747831 -0.000000
v -0.236669 3.850110 -0.625858
v -0.493934 2.687515 -0.625858
v -0.698528 2.687515 -0.000000
v -0.493934 2.687515 0.625858
v -0.074632 4.968414 0.610077
v -0.088749 4.944788 -1.078704
vn 0.9890 0.1427 -0.0394
vn 0.9215 0.2450 -0.3012
vn 0.7385 -0.0000 0.6742
vn -0.0000 -1.0000 -0.0000
vn 0.9613 0.2292 0.1532
vn 0.9592 0.1189 -0.2563
vn 0.4623 0.1023 -0.8808
vn 0.9483 0.2098 0.2383
vn 0.9759 0.2147 0.0389
vn 0.9023 0.3664 -0.2274
vn 0.7270 -0.1763 -0.6637
vn 0.8779 -0.1029 0.4676
vn 0.9668 0.2527 -0.0385
vn -0.9572 0.1423 0.2519
vn -0.9215 0.2450 -0.3012
vn -0.4623 0.1023 0.8808
vn -0.9112 0.3700 0.1813
vn -0.9592 0.1189 -0.2563
vn -0.4623 0.1023 -0.8808
vn -0.9215 0.2450 0.3012
vn -0.9759 0.2147 0.0389
vn -0.9023 0.3664 -0.2274
vn -0.7270 -0.1763 -0.6637
vn -0.7344 -0.1059 0.6704
vn -0.9668 0.2527 -0.0385
vn 0.9572 0.1423 0.2519
vn 0.9483 0.2098 -0.2383
vn 0.4623 0.1023 0.8808
vn 0.9112 0.3700 0.1813
vn 0.9879 0.1498 0.0394
vn 0.7385 -0.0000 -0.6742
vn 0.9215 0.2450 0.3012
vn 0.9415 0.3179 0.1123
vn 0.9796 0.1227 -0.1590
vn 0.8819 -0.1505 -0.4467
vn 0.7344 -0.1059 0.6704
vn 0.9863 0.1420 -0.0845
vn -0.9890 0.1427 -0.0394
vn -0.9483 0.2098 -0.2383
vn -0.7385 -0.0000 0.6742
vn -0.9613 0.2292 0.1532
vn -0.9879 0.1498 0.0394
vn -0.7385 -0.0000 -0.6742
vn -0.9483 0.2098 0.2383
vn -0.9415 0.3179 0.1123
vn -0.9796 0.1227 -0.1590
vn -0.8819 -0.1505 -0.4467
vn -0.8779 -0.1029 0.4676
vn -0.9863 0.1420 -0.0845
vt 0.250000 0.250000
vt 0.250000 0.250000
vt 0.490000 0.250000
vt 0.419706 0.080294
vt 0.250000 0.010000
vt 0.419706 0.080294
vt 0.490000 0.250000
vt 0.250000 0.490000
vt 0.419706 0.419706
vt 0.419706 0.419706
vt 0.250000 0.490000
vt 0.490000 0.250000
vt 0.419706 0.080294
vt 0.250000 0.010000
vt 0.250000 0.010000
vt 0.250000 0.250000
vt 0.490000 0.250000
vt 0.250000 0.250000
vt 0.250000 0.490000
vt 0.419706 0.419706
vt 0.490000 0.250000
vt 0.419706 0.080294
vt 0.419706 0.080294
vt 0.490000 0.250000
vt 0.419706 0.419706
vt 0.419706 0.419706
vt 0.490000 0.250000
vt 0.419706 0.080294
vt 0.490000 0.250000
vt 0.419706 0.419706
s 0
f 6/6/1 17/17/1 4/4/1
f 10/10/2 7/7/2 12/12/2
f 14/14/3 6/6/3 5/5/3
f 10/10/4 18/18/4 11/11/4
f 1/1/5 3/3/5 2/2/5
f 9/9/6 3/3/6 7/7/6
f 11/11/7 9/9/7 10/10/7
f 13/13/8 7/7/8 6/6/8
f 19/19/9 3/3/9 20/20/9
f 1/1/10 17/17/10 7/7/10
f 8/8/11 20/20/11 9/9/11
f 5/5/12 4/4/12 15/15/12
f 16/16/13 4/4/13 17/17/13
f 18/18/4 13/13/4 14/14/4
f 23/23/14 29/29/14 24/24/14
f 24/24/15 26/26/15 27/27/15
f 14/14/16 23/23/16 28/28/16
f 26/26/4 18/18/4 27/27/4
f 1/1/17 21/21/17 24/24/17
f 21/21/18 25/25/18 24/24/18
f 25/25/19 11/11/19 26/26/19
f 28/28/20 24/24/20 27/27/20
f 21/21/21 19/19/21 30/30/21
f 29/29/22 1/1/22 24/24/22
f 30/30/23 8/8/23 25/25/23
f 5/5/24 22/22/24 23/23/24
f 22/22/25 16/16/25 29/29/25
f 18/18/4 28/28/4 27/27/4
f 6/6/26 7/7/26 17/17/26
f 10/10/27 9/9/27 7/7/27
f 14/14/28 13/13/28 6/6/28
f 10/10/4 12/12/4 18/18/4
f 1/1/29 7/7/29 3/3/29
f 9/9/30 20/20/30 3/3/30
f 11/11/31 8/8/31 9/9/31
f 13/13/32 12/12/32 7/7/32
f 19/19/33 2/2/33 3/3/33
f 1/1/34 16/16/34 17/17/34
f 8/8/35 19/19/35 20/20/35
f 5/5/36 6/6/36 4/4/36
f 16/16/37 15/15/37 4/4/37
f 18/18/4 12/12/4 13/13/4
f 23/23/38 22/22/38 29/29/38
f 24/24/39 25/25/39 26/26/39
f 14/14/40 5/5/40 23/23/40
f 26/26/4 11/11/4 18/18/4
f 1/1/41 2/2/41 21/21/41
f 21/21/42 30/30/42 25/25/42
f 25/25/43 8/8/43 11/11/43
f 28/28/44 23/23/44 24/24/44
f 21/21/45 2/2/45 19/19/45
f 29/29/46 16/16/46 1/1/46
f 30/30/47 19/19/47 8/8/47
f 5/5/48 15/15/48 22/22/48
f 22/22/49 15/15/49 16/16/49
f 18/18/4 14/14/4 28/28/4
