# Blender 3.4.0
# www.blender.org
o Tail_3
v 0.000000 4.773639 -0.000000
v 0.000000 5.857087 -0.238535
v 0.074632 4.879471 -0.272952
v 0.088749 5.770558 0.721397
v 0.000000 5.973613 1.243239
v 0.236669 3.850110 0.625858
v 0.416577 3.747831 -0.000000
v 0.000000 3.850110 -0.885097
v 0.236669 3.850110 -0.625858
v 0.493934 2.687515 -0.625858
v 0.000000 2.687515 -0.885097
v 0.698528 2.687515 -0.000000
v 0.493934 2.687515 0.625858
v 0.000000 2.687515 0.885097
v 0.000000 8.891616 -0.119266
v 0.000000 6.097531 0.261183
v 0.074632 5.176605 0.504672
v 0.000000 2.687515 0.000000
v 0.000000 8.130379 -0.649804
v 0.088749 4.456565 -0.629580
v 0.322486 6.048308 0.695341
v 0.604896 4.130057 0.652911
v 0.714799 4.616426 0.448536
v 0.455666 4.062451 0.465809
v -0.074632 4.879471 -0.272952
v -0.088749 5.770558 0.721397
v -0.236669 3.850110 0.625858
v -0.416577 3.747831 -0.000000
v -0.236669 3.850110 -0.625858
v -0.493934 2.687515 -0.625858
v -0.698528 2.687515 -0.000000
v -0.493934 2.687515 0.625858
v -0.074632 5.176605 0.504672
v -0.088749 4.456565 -0.629580
v -0.322486 6.048308 0.695341
v -0.604896 4.130057 0.652911
v -0.714799 4.616426 0.448536
v -0.455666 4.062451 0.465809
vn 0.9488 0.0882 -0.3034
vn 0.9215 0.2450 -0.3012
vn 0.8511 -0.0569 0.5219
vn -0.0000 -1.0000 -0.0000
vn 0.9562 0.0629 0.2859
vn 0.9448 0.2290 -0.2342
vn 0.4623 0.1023 -0.8808
vn -0.0509 -0.0296 0.9983
vn 0.9956 0.0779 -0.0529
vn 0.8489 0.3447 -0.4008
vn 0.7273 0.1733 -0.6640
vn 0.9876 0.0664 0.1421
vn 0.9858 0.0365 -0.1642
vn 0.7531 0.1252 -0.6459
vn -0.4877 0.2016 -0.8494
vn 0.9476 -0.0787 0.3098
vn -0.7690 0.5578 -0.3122
vn -0.9575 0.1400 0.2523
vn -0.9215 0.2450 -0.3012
vn -0.4623 0.1023 0.8808
vn -0.8605 0.3494 0.3708
vn -0.9448 0.2290 -0.2342
vn -0.4623 0.1023 -0.8808
vn 0.0628 -0.0139 0.9979
vn -0.9903 0.0247 0.1364
vn -0.8489 0.3447 -0.4008
vn -0.7273 0.1733 -0.6640
vn -0.9876 0.0690 0.1411
vn -0.9858 0.0365 -0.1642
vn 0.7848 0.3823 0.4878
vn -0.9365 0.2490 -0.2468
vn -0.9476 -0.0787 0.3098
vn 0.7690 0.5578 -0.3122
vn 0.9575 0.1400 0.2523
vn 0.9483 0.2098 -0.2383
vn 0.4623 0.1023 0.8808
vn 0.8605 0.3494 0.3708
vn 0.7385 -0.0000 -0.6742
vn -0.0628 -0.0139 0.9979
vn 0.9903 0.0247 0.1364
vn 0.9844 0.0341 -0.1728
vn 0.9285 0.0204 -0.3709
vn 0.9876 0.0690 0.1411
vn 0.9776 -0.0284 -0.2087
vn -0.7848 0.3823 0.4878
vn 0.9365 0.2490 -0.2468
vn 0.9456 -0.0813 0.3151
vn -0.6198 0.0490 -0.7832
vn -0.9488 0.0882 -0.3034
vn -0.9483 0.2098 -0.2383
vn -0.8511 -0.0569 0.5219
vn -0.9562 0.0629 0.2859
vn -0.7385 -0.0000 -0.6742
vn 0.0509 -0.0296 0.9983
vn -0.9956 0.0779 -0.0529
vn -0.9844 0.0341 -0.1728
vn -0.9285 0.0204 -0.3709
vn -0.9876 0.0664 0.1421
vn -0.9776 -0.0284 -0.2087
vn -0.7531 0.1252 -0.6459
vn 0.4877 0.2016 -0.8494
vn -0.9456 -0.0813 0.3151
vn 0.6198 0.0490 -0.7832
vt 0.250000 0.250000
vt 0.250000 0.250000
vt 0.490000 0.250000
vt 0.419706 0.080294
vt 0.250000 0.010000
vt 0.419706 0.080294
vt 0.490000 0.250000
vt 0.250000 0.490000
vt 0.419706 0.419706
vt 0.419706 0.419706
vt 0.250000 0.490000
vt 0.490000 0.250000
vt 0.419706 0.080294
vt 0.250000 0.010000
vt 0.250000 0.010000
vt 0.250000 0.250000
vt 0.490000 0.250000
vt 0.250000 0.250000
vt 0.250000 0.490000
vt 0.419706 0.419706
vt 0.419706 0.080294
vt 0.419706 0.080294
vt 0.490000 0.250000
vt 0.490000 0.250000
vt 0.490000 0.250000
vt 0.419706 0.080294
vt 0.419706 0.080294
vt 0.490000 0.250000
vt 0.419706 0.419706
vt 0.419706 0.419706
vt 0.490000 0.250000
vt 0.419706 0.080294
vt 0.490000 0.250000
vt 0.419706 0.419706
vt 0.419706 0.080294
vt 0.419706 0.080294
vt 0.490000 0.250000
vt 0.490000 0.250000
s 0
f 6/6/1 17/17/1 4/4/1
f 10/10/2 7/7/2 12/12/2
f 14/14/3 6/6/3 5/5/3
f 10/10/4 18/18/4 11/11/4
f 1/1/5 3/3/5 2/2/5
f 7/7/6 20/20/6 3/3/6
f 11/11/7 9/9/7 10/10/7
f 6/6/8 22/22/8 21/21/8
f 20/20/9 2/2/9 3/3/9
f 1/1/10 17/17/10 7/7/10
f 8/8/11 20/20/11 9/9/11
f 5/5/12 4/4/12 15/15/12
f 16/16/13 4/4/13 17/17/13
f 18/18/4 13/13/4 14/14/4
f 22/22/14 24/24/14 21/21/14
f 12/12/15 24/24/15 23/23/15
f 12/12/16 22/22/16 13/13/16
f 6/6/17 24/24/17 7/7/17
f 27/27/18 33/33/18 28/28/18
f 28/28/19 30/30/19 31/31/19
f 14/14/20 27/27/20 32/32/20
f 30/30/4 18/18/4 31/31/4
f 1/1/21 25/25/21 28/28/21
f 28/28/22 34/34/22 29/29/22
f 29/29/23 11/11/23 30/30/23
f 27/27/24 36/36/24 32/32/24
f 34/34/25 2/2/25 19/19/25
f 33/33/26 1/1/26 28/28/26
f 34/34/27 8/8/27 29/29/27
f 5/5/28 26/26/28 27/27/28
f 26/26/29 16/16/29 33/33/29
f 18/18/4 32/32/4 31/31/4
f 36/36/30 38/38/30 37/37/30
f 31/31/31 38/38/31 28/28/31
f 36/36/32 31/31/32 32/32/32
f 38/38/33 27/27/33 28/28/33
f 6/6/34 7/7/34 17/17/34
f 10/10/35 9/9/35 7/7/35
f 14/14/36 13/13/36 6/6/36
f 10/10/4 12/12/4 18/18/4
f 1/1/37 7/7/37 3/3/37
f 7/7/6 9/9/6 20/20/6
f 11/11/38 8/8/38 9/9/38
f 6/6/39 13/13/39 22/22/39
f 20/20/40 19/19/40 2/2/40
f 1/1/41 16/16/41 17/17/41
f 8/8/42 19/19/42 20/20/42
f 5/5/43 6/6/43 4/4/43
f 16/16/44 15/15/44 4/4/44
f 18/18/4 12/12/4 13/13/4
f 22/22/45 23/23/45 24/24/45
f 12/12/46 7/7/46 24/24/46
f 12/12/47 23/23/47 22/22/47
f 6/6/48 21/21/48 24/24/48
f 27/27/49 26/26/49 33/33/49
f 28/28/50 29/29/50 30/30/50
f 14/14/51 5/5/51 27/27/51
f 30/30/4 11/11/4 18/18/4
f 1/1/52 2/2/52 25/25/52
f 28/28/22 25/25/22 34/34/22
f 29/29/53 8/8/53 11/11/53
f 27/27/54 35/35/54 36/36/54
f 34/34/55 25/25/55 2/2/55
f 33/33/56 16/16/56 1/1/56
f 34/34/57 19/19/57 8/8/57
f 5/5/58 15/15/58 26/26/58
f 26/26/59 15/15/59 16/16/59
f 18/18/4 14/14/4 32/32/4
f 36/36/60 35/35/60 38/38/60
f 31/31/61 37/37/61 38/38/61
f 36/36/62 37/37/62 31/31/62
f 38/38/63 35/35/63 27/27/63
