# Blender 3.3.1
# www.blender.org
o Cube
v -0.753507 0.005004 -1.000000
v -0.753507 0.005004 1.000000
v -0.682678 -4.994996 -1.000000
v -0.682678 -4.994996 1.000000
v 0.000000 -4.994996 -1.852358
v 0.000000 -4.994996 2.348798
v 0.000000 0.005004 -1.852358
v 0.000000 -0.848584 3.936762
v 0.000000 -9.994996 1.104890
v -0.519340 -8.173049 0.722151
v -0.519340 -8.173049 -0.722151
v 0.000000 -9.994996 -1.104890
v -0.687465 3.005004 0.884308
v -0.663563 4.915076 -0.671010
v 0.000000 3.005004 -1.591296
v 0.000000 3.033464 2.103827
v -0.613237 6.114476 0.346786
v -0.661467 5.038177 -0.662670
v 0.000000 6.005004 -0.966911
v 0.000000 6.005004 1.019930
v -0.121358 -4.994996 2.185110
v -0.500000 0.005004 -1.426179
v -0.500000 -4.994996 -1.426179
v -0.121358 0.005004 2.185110
v -0.430538 -9.994996 0.850684
v -0.430538 -9.994996 -0.850684
v -0.466979 3.005004 -1.221409
v -0.113343 3.005004 1.912883
v -0.466979 6.005004 -0.935683
v -0.526792 6.127817 0.699145
v -0.753507 -3.102101 -1.000000
v -0.753507 -3.102101 1.000000
v 0.000000 -3.365296 2.799555
v 0.000000 -3.102101 -1.852358
v -0.121358 -3.102101 2.185110
v -0.500000 -3.102101 -1.426179
v -0.531023 6.544954 0.397401
v -0.331027 7.005004 -0.213930
v -0.164341 7.005004 -0.316706
v -0.423166 6.492315 0.576041
v 0.000000 7.005004 0.381341
v 0.000000 7.005004 -0.327853
v -0.847878 -4.994996 0.000000
v -1.000000 0.005004 0.000000
v -0.732522 4.914602 -0.207421
v -0.594552 -8.173049 0.000000
v -0.720101 5.037636 -0.218537
v -0.430538 -9.994996 0.000000
v -1.000000 -3.102101 0.000000
v -0.490393 6.737787 -0.021900
v 0.000000 5.893565 0.026744
v -0.164341 6.254764 0.030746
v -0.636125 5.872561 0.170419
v -0.339962 5.872561 0.961816
v -0.365607 6.938377 0.262669
v -0.164341 7.005004 0.378198
v -0.649938 6.293923 0.487620
v -0.594833 6.296029 0.580523
v -0.583981 6.420164 0.478649
v -0.543093 6.422932 0.531579
v -0.177590 -10.977233 -1.029917
v 0.000000 -12.611287 -2.493408
v 0.000000 -11.952014 0.000000
v 0.000000 -13.485168 2.742697
v -0.177590 -10.977233 1.029917
v -0.177590 -10.977233 0.000000
v -0.933957 3.005004 0.016393
v -0.687465 3.005004 -0.851522
v -0.633754 6.005004 -0.255152
v -0.633754 6.005004 -0.647752
v -1.321210 3.745616 0.062340
v -1.252252 3.746090 -1.104087
v -1.308789 3.868650 0.034372
v -1.250155 3.869191 -1.083103
v 0.753507 0.005004 -1.000000
v 0.753507 0.005004 1.000000
v 0.682678 -4.994996 -1.000000
v 0.682678 -4.994996 1.000000
v 0.519340 -8.173049 0.722151
v 0.519340 -8.173049 -0.722151
v 0.687465 3.005004 0.884308
v 0.663563 4.915076 -0.671010
v 0.613237 6.114476 0.346786
v 0.661467 5.038177 -0.662670
v 0.121358 -4.994996 2.185110
v 0.500000 0.005004 -1.426179
v 0.500000 -4.994996 -1.426179
v 0.121358 0.005004 2.185110
v 0.430538 -9.994996 0.850684
v 0.430538 -9.994996 -0.850684
v 0.466979 3.005004 -1.221409
v 0.113343 3.005004 1.912883
v 0.466979 6.005004 -0.935683
v 0.526792 6.127817 0.699145
v 0.753507 -3.102101 -1.000000
v 0.753507 -3.102101 1.000000
v 0.121358 -3.102101 2.185110
v 0.500000 -3.102101 -1.426179
v 0.531023 6.544954 0.397401
v 0.331027 7.005004 -0.213930
v 0.164341 7.005004 -0.316706
v 0.423166 6.492315 0.576041
v 0.847878 -4.994996 0.000000
v 1.000000 0.005004 0.000000
v 0.732522 4.914602 -0.207421
v 0.594552 -8.173049 0.000000
v 0.720101 5.037636 -0.218537
v 0.430538 -9.994996 0.000000
v 1.000000 -3.102101 0.000000
v 0.490393 6.737787 -0.021900
v 0.164341 6.254764 0.030746
v 0.636125 5.872561 0.170419
v 0.339962 5.872561 0.961816
v 0.365607 6.938377 0.262669
v 0.164341 7.005004 0.378198
v 0.649938 6.293923 0.487620
v 0.594833 6.296029 0.580523
v 0.583981 6.420164 0.478649
v 0.543093 6.422932 0.531579
v 0.177590 -10.977233 -1.029917
v 0.177590 -10.977233 1.029917
v 0.177590 -10.977233 0.000000
v 0.933957 3.005004 0.016393
v 0.687465 3.005004 -0.851522
v 0.633754 6.005004 -0.255152
v 0.633754 6.005004 -0.647752
v 1.321210 3.745616 0.062340
v 1.252252 3.746090 -1.104087
v 1.308789 3.868650 0.034372
v 1.250155 3.869191 -1.083103
vn -0.9915 -0.0790 -0.1033
vn -0.9709 -0.0000 0.2393
vn -0.8594 -0.0000 -0.5112
vn -0.9976 -0.0000 0.0691
vn -0.9618 0.0197 0.2731
vn -0.9907 -0.0892 0.1032
vn -0.5056 -0.1056 -0.8563
vn -0.9500 -0.0243 0.3113
vn -0.8621 0.0968 0.4973
vn -0.8620 0.0481 0.5045
vn -0.8586 0.0443 -0.5107
vn -0.3242 0.4726 0.8195
vn -0.9945 0.1019 0.0262
vn -0.8580 0.0487 -0.5114
vn -0.6128 0.1610 -0.7737
vn -0.0571 0.5376 -0.8413
vn -0.6473 0.0661 -0.7594
vn -0.8726 0.0380 0.4870
vn -0.9315 0.1035 0.3486
vn -0.7946 -0.1466 0.5891
vn -0.9161 -0.0814 -0.3927
vn -0.9684 -0.2494 -0.0000
vn -0.8823 -0.0000 0.4706
vn -0.6487 -0.0000 -0.7611
vn -0.8818 -0.0330 0.4704
vn -0.9810 -0.0000 0.1938
vn -0.9191 -0.0000 -0.3940
vn -0.9680 -0.0778 0.2386
vn 0.5419 0.2554 -0.8007
vn 0.6967 0.4058 -0.5916
vn -0.9830 0.1766 0.0495
vn -0.4321 0.3964 0.8100
vn -0.7511 0.4966 -0.4350
vn -0.8996 0.3718 -0.2292
vn 0.5029 0.2862 0.8156
vn 0.0614 0.4194 0.9057
vn -0.9860 -0.0369 -0.1629
vn -0.5083 0.0262 -0.8608
vn 0.5138 0.0493 -0.8565
vn -0.9988 -0.0487 -0.0000
vn -0.9704 0.0332 -0.2392
vn -0.9709 -0.0000 -0.2393
vn -0.9846 -0.0648 0.1626
vn -0.8908 -0.3089 0.3333
vn -0.6833 0.4767 0.5530
vn -0.3058 0.4732 0.8262
vn -0.9673 0.2027 -0.1525
vn -0.7774 0.4382 0.4512
vn -0.7381 -0.5035 0.4492
vn -0.9351 0.2120 -0.2839
vn -0.5634 0.6358 0.5275
vn -0.9838 -0.1792 -0.0000
vn -0.9893 -0.1409 0.0373
vn -0.9391 0.1460 0.3112
vn -0.9596 0.0693 -0.2725
vn -0.9996 0.0287 -0.0000
vn -0.9796 0.0310 -0.1986
vn -0.9731 0.0787 -0.2168
vn -0.9983 0.0259 -0.0524
vn 0.8840 -0.4645 0.0521
vn 0.0083 0.2209 0.9753
vn -0.8969 0.4262 -0.1179
vn 0.9846 -0.0648 -0.1626
vn 0.9709 -0.0000 0.2393
vn 0.8594 -0.0000 -0.5112
vn 0.9839 -0.0736 0.1628
vn 0.9705 0.0306 0.2392
vn 0.9988 -0.0487 -0.0000
vn 0.6445 -0.1130 -0.7562
vn 0.9006 -0.0836 0.4266
vn 0.8621 0.0968 0.4973
vn 0.9951 0.0423 0.0895
vn 0.8586 0.0443 -0.5107
vn 0.3242 0.4726 0.8195
vn 0.9585 0.0849 0.2722
vn 0.8580 0.0487 -0.5114
vn 0.6128 0.1610 -0.7737
vn 0.0563 0.5377 -0.8412
vn 0.6473 0.0661 -0.7594
vn 0.8814 0.0450 0.4702
vn 0.8695 0.0922 0.4853
vn 0.7946 -0.1466 0.5891
vn 0.9161 -0.0814 -0.3927
vn 0.9684 -0.2494 -0.0000
vn 0.8823 -0.0000 0.4706
vn 0.6487 -0.0000 -0.7611
vn 0.9038 -0.0000 0.4281
vn 0.7926 -0.1625 0.5876
vn 0.9191 -0.0000 -0.3940
vn 0.9860 -0.0369 0.1629
vn -0.0174 0.4202 -0.9073
vn -0.6967 0.4058 -0.5916
vn 0.9830 0.1766 0.0495
vn 0.4321 0.3964 0.8100
vn 0.7511 0.4966 -0.4350
vn 0.9814 0.1920 -0.0000
vn -0.5029 0.2862 0.8156
vn -0.0614 0.4194 0.9057
vn 0.9860 -0.0369 -0.1629
vn 0.5083 0.0262 -0.8608
vn -0.5138 0.0493 -0.8565
vn 0.9704 0.0332 -0.2392
vn 0.9709 -0.0000 -0.2393
vn 0.9846 -0.0648 0.1626
vn 0.9670 -0.0838 0.2404
vn 0.6833 0.4767 0.5530
vn 0.5150 0.4021 0.7570
vn 0.9673 0.2027 -0.1525
vn 0.7774 0.4382 0.4512
vn 0.9469 -0.2135 0.2404
vn 0.9351 0.2120 -0.2839
vn 0.5634 0.6358 0.5275
vn 0.9915 -0.1136 -0.0635
vn 0.9893 -0.1409 0.0373
vn 0.5083 0.0262 0.8608
vn 0.9888 0.0263 -0.1471
vn 0.9880 0.0833 -0.1303
vn 0.9757 0.0313 -0.2169
vn 0.9731 0.0787 -0.2168
vn 0.9945 0.0870 -0.0588
vn -0.8972 -0.4211 0.1330
vn -0.2982 0.0560 0.9529
vn 0.8969 0.4262 -0.1179
vn -0.9846 -0.0648 -0.1626
vn -0.9839 -0.0736 0.1628
vn -0.9705 0.0306 0.2392
vn -0.6445 -0.1130 -0.7562
vn -0.9006 -0.0836 0.4266
vn -0.2821 0.3288 0.9013
vn -0.9951 0.0423 0.0895
vn -0.8581 0.0442 -0.5115
vn -0.0161 0.5381 0.8427
vn -0.9585 0.0849 0.2722
vn -0.8643 0.0495 -0.5006
vn -0.0664 0.0946 -0.9933
vn -0.0563 0.5377 -0.8412
vn -0.6198 0.0602 -0.7825
vn -0.8814 0.0450 0.4702
vn -0.8695 0.0922 0.4853
vn -0.4987 -0.1946 0.8446
vn -0.9822 -0.0349 -0.1844
vn -0.9038 -0.0000 0.4281
vn -0.7926 -0.1625 0.5876
vn -0.8590 -0.0321 -0.5110
vn -0.9860 -0.0369 0.1629
vn 0.0174 0.4202 -0.9073
vn 0.3566 0.3926 -0.8477
vn -0.9410 0.2163 0.2602
vn -0.5366 0.4851 0.6905
vn -0.4641 0.4670 -0.7527
vn -0.9814 0.1920 -0.0000
vn 0.4298 0.3794 0.8193
vn 0.5686 0.2500 0.7837
vn -0.9680 -0.0778 -0.2386
vn -0.9476 0.1498 -0.2822
vn 0.3759 0.1495 -0.9145
vn -0.9907 -0.0892 -0.1032
vn -0.9617 0.0227 -0.2731
vn -0.9915 -0.0790 0.1033
vn -0.9670 -0.0838 0.2404
vn -0.5475 0.5272 0.6498
vn -0.5150 0.4021 0.7570
vn -0.9004 0.2588 -0.3497
vn -0.7035 0.4866 0.5180
vn -0.9469 -0.2135 0.2404
vn -0.7189 0.3322 -0.6106
vn -0.6550 0.5874 0.4753
vn -0.9915 -0.1136 -0.0635
vn -0.5083 0.0262 0.8608
vn -0.9888 0.0263 -0.1471
vn -0.9880 0.0833 -0.1303
vn -0.9757 0.0313 -0.2169
vn -0.9769 0.0798 -0.1983
vn -0.9945 0.0870 -0.0588
vn 0.8972 -0.4211 0.1330
vn 0.2982 0.0560 0.9529
vn -0.8854 0.4625 -0.0462
vn 0.9915 -0.0790 -0.1033
vn 0.9976 -0.0000 0.0691
vn 0.9618 0.0197 0.2731
vn 0.9907 -0.0892 0.1032
vn 0.5056 -0.1056 -0.8563
vn 0.9500 -0.0243 0.3113
vn 0.2821 0.3288 0.9013
vn 0.8620 0.0481 0.5045
vn 0.8581 0.0442 -0.5115
vn 0.0161 0.5381 0.8427
vn 0.9945 0.1019 0.0262
vn 0.8643 0.0495 -0.5006
vn 0.0664 0.0946 -0.9933
vn 0.0571 0.5376 -0.8413
vn 0.6198 0.0602 -0.7825
vn 0.8726 0.0380 0.4870
vn 0.9315 0.1035 0.3486
vn 0.4987 -0.1946 0.8446
vn 0.9822 -0.0349 -0.1844
vn 0.8818 -0.0330 0.4704
vn 0.9810 -0.0000 0.1938
vn 0.8590 -0.0321 -0.5110
vn 0.9680 -0.0778 0.2386
vn -0.5419 0.2554 -0.8007
vn -0.3566 0.3926 -0.8477
vn 0.9410 0.2163 0.2602
vn 0.5366 0.4851 0.6905
vn 0.4641 0.4670 -0.7527
vn 0.8996 0.3718 -0.2292
vn -0.4298 0.3794 0.8193
vn -0.5686 0.2500 0.7837
vn 0.9680 -0.0778 -0.2386
vn 0.9476 0.1498 -0.2822
vn -0.3759 0.1495 -0.9145
vn 0.9907 -0.0892 -0.1032
vn 0.9617 0.0227 -0.2731
vn 0.9915 -0.0790 0.1033
vn 0.8908 -0.3089 0.3333
vn 0.5475 0.5272 0.6498
vn 0.3058 0.4732 0.8262
vn 0.9004 0.2588 -0.3497
vn 0.7035 0.4866 0.5180
vn 0.7381 -0.5035 0.4492
vn 0.7189 0.3322 -0.6106
vn 0.6550 0.5874 0.4753
vn 0.9838 -0.1792 -0.0000
vn 0.9391 0.1460 0.3112
vn 0.9596 0.0693 -0.2725
vn 0.9996 0.0287 -0.0000
vn 0.9796 0.0310 -0.1986
vn 0.9769 0.0798 -0.1983
vn 0.9983 0.0259 -0.0524
vn -0.8840 -0.4645 0.0521
vn -0.0083 0.2209 0.9753
vn 0.8854 0.4625 -0.0462
vt 0.561299 0.339294
vt 0.462088 0.330382
vt 0.539078 0.579689
vt 0.440984 0.571061
vt 0.284644 0.413888
vt 0.593206 0.586111
vt 0.058528 0.433642
vt 0.367090 0.566358
vt 0.616984 0.343591
vt 0.308423 0.656408
vt 0.308701 0.357328
vt 0.000139 0.642672
vt 0.403574 0.817109
vt 0.095012 0.182891
vt 0.441379 0.728027
vt 0.512917 0.733876
vt 0.535908 0.827153
vt 0.227347 0.172847
vt 0.480367 0.188149
vt 0.728527 0.234829
vt 0.563055 0.106994
vt 0.701241 0.363580
vt 0.616984 0.196841
vt 0.308423 0.803159
vt 0.414822 0.178385
vt 0.106261 0.821615
vt 0.520890 0.051763
vt 0.705107 0.574873
vt 0.562768 0.099728
vt 0.725165 0.228843
vt 0.598881 0.056816
vt 0.290320 0.943184
vt 0.477150 0.044187
vt 0.168588 0.955813
vt 0.377092 0.566813
vt 0.585169 0.341259
vt 0.561432 0.582159
vt 0.397541 0.323804
vt 0.427980 0.817083
vt 0.511734 0.823627
vt 0.588886 0.195883
vt 0.425064 0.181142
vt 0.578199 0.063172
vt 0.506244 0.048905
vt 0.705107 0.594749
vt 0.547647 0.488547
vt 0.448963 0.479598
vt 0.352565 0.484751
vt 0.044003 0.515248
vt 0.603390 0.494238
vt 0.294828 0.505762
vt 0.383983 0.474420
vt 0.571543 0.491003
vt 0.520668 0.033360
vt 0.683146 0.580143
vt 0.684713 0.470967
vt 0.553593 0.012046
vt 0.562818 0.009985
vt 0.696166 0.480665
vt 0.684437 0.592004
vt 0.511636 0.033183
vt 0.512255 0.000139
vt 0.203693 0.999861
vt 0.723687 0.412569
vt 0.569980 0.006232
vt 0.261418 0.993768
vt 0.705131 0.484130
vt 0.490118 0.574860
vt 0.511488 0.335032
vt 0.540649 0.104873
vt 0.679447 0.359620
vt 0.695014 0.231777
vt 0.477187 0.730651
vt 0.542037 0.097757
vt 0.699357 0.226567
vt 0.469893 0.820612
vt 0.498370 0.483579
vt 0.541110 0.024890
vt 0.684696 0.442947
vt 0.714768 0.446965
vt 0.709991 0.445611
vt 0.527763 0.063969
vt 0.488974 0.056644
vt 0.698265 0.418544
vt 0.528340 0.013265
vt 0.714921 0.411139
vt 0.518406 0.004939
vt 0.696989 0.582984
vt 0.696689 0.587711
vt 0.690561 0.583481
vt 0.689918 0.586690
vt 0.519986 0.875821
vt 0.579937 0.972528
vt 0.271376 0.027472
vt 0.462273 0.920859
vt 0.153711 0.079141
vt 0.327301 0.999861
vt 0.018739 0.000139
vt 0.411965 0.867551
vt 0.465967 0.871947
vt 0.522044 0.191923
vt 0.568138 0.194884
vt 0.546731 0.060569
vt 0.563827 0.062912
vt 0.673844 0.296712
vt 0.728527 0.304414
vt 0.677834 0.291512
vt 0.725817 0.298002
vt 0.252738 0.660706
vt 0.153526 0.669618
vt 0.230516 0.420310
vt 0.132423 0.428939
vt 0.132817 0.271973
vt 0.204356 0.266124
vt 0.171806 0.811851
vt 0.729302 0.205625
vt 0.254493 0.893006
vt 0.702016 0.076874
vt 0.212329 0.948237
vt 0.705107 0.614903
vt 0.254206 0.900272
vt 0.725941 0.211611
vt 0.068530 0.433187
vt 0.276608 0.658741
vt 0.252870 0.417840
vt 0.088980 0.676196
vt 0.119418 0.182917
vt 0.203173 0.176373
vt 0.280325 0.804117
vt 0.116502 0.818858
vt 0.269637 0.936828
vt 0.705107 0.595027
vt 0.197682 0.951095
vt 0.239085 0.511452
vt 0.140401 0.520402
vt 0.075421 0.525580
vt 0.262981 0.508997
vt 0.212106 0.966640
vt 0.683146 0.609634
vt 0.729374 0.482548
vt 0.245031 0.987953
vt 0.254256 0.990015
vt 0.714651 0.485459
vt 0.684437 0.597772
vt 0.203074 0.966817
vt 0.181557 0.425139
vt 0.202927 0.664968
vt 0.680222 0.080834
vt 0.232087 0.895127
vt 0.695789 0.208677
vt 0.168625 0.269349
vt 0.233475 0.902243
vt 0.700132 0.213887
vt 0.161332 0.179388
vt 0.189809 0.516420
vt 0.232548 0.975109
vt 0.743005 0.458067
vt 0.719602 0.448102
vt 0.219202 0.936031
vt 0.180412 0.943356
vt 0.743005 0.430143
vt 0.219778 0.986735
vt 0.732046 0.415577
vt 0.209845 0.995061
vt 0.696989 0.606792
vt 0.696689 0.602065
vt 0.690561 0.606295
vt 0.689918 0.603086
vt 0.211424 0.124179
vt 0.103403 0.132449
vt 0.157406 0.128053
vt 0.213482 0.808077
vt 0.259577 0.805116
vt 0.238169 0.939431
vt 0.255265 0.937088
vt 0.674619 0.143742
vt 0.729302 0.136040
vt 0.678609 0.148941
vt 0.726592 0.142452
s 0
f 43/68/1 11/16/1 46/73/1
f 32/47/2 44/69/2 49/77/2
f 31/46/3 22/36/3 36/53/3
f 35/52/4 8/11/4 24/38/4
f 44/69/5 13/19/5 67/101/5
f 48/76/6 10/15/6 46/73/6
f 23/37/7 12/17/7 26/40/7
f 21/35/8 10/15/8 25/39/8
f 16/25/9 54/83/9 28/42/9
f 24/38/10 16/25/10 28/42/10
f 1/1/11 27/41/11 22/36/11
f 20/33/12 56/87/12 54/83/12
f 67/101/13 53/82/13 69/103/13
f 68/102/14 29/43/14 27/41/14
f 27/41/15 19/31/15 15/23/15
f 19/31/16 39/58/16 42/65/16
f 22/36/17 15/23/17 7/9/17
f 2/2/18 28/42/18 13/19/18
f 13/19/19 54/83/19 53/82/19
f 21/35/20 9/13/20 6/8/20
f 23/37/21 11/16/21 3/3/21
f 26/40/22 66/100/22 48/76/22
f 35/52/23 2/2/23 32/47/23
f 36/53/24 7/9/24 34/50/24
f 23/37/24 34/50/24 5/6/24
f 4/4/25 35/52/25 32/47/25
f 21/35/26 33/48/26 35/52/26
f 3/3/27 36/53/27 23/37/27
f 43/68/28 32/47/28 49/77/28
f 52/81/29 41/64/29 51/80/29
f 55/84/30 52/81/30 50/79/30
f 53/82/31 50/78/31 69/103/31
f 40/60/32 58/89/32 30/45/32
f 70/104/33 39/58/33 29/43/33
f 70/104/34 50/78/34 38/57/34
f 50/79/35 39/59/35 38/56/35
f 52/81/36 42/67/36 39/59/36
f 43/68/37 31/46/37 3/3/37
f 12/17/38 61/92/38 26/40/38
f 14/20/39 74/108/39 18/30/39
f 48/76/40 11/16/40 26/40/40
f 44/69/41 68/102/41 1/1/41
f 49/77/42 1/1/42 31/46/42
f 43/68/43 10/15/43 4/4/43
f 30/44/44 53/82/44 54/83/44
f 40/61/45 55/85/45 37/54/45
f 40/61/46 54/83/46 56/87/46
f 37/54/47 53/82/47 17/27/47
f 58/89/48 59/90/48 57/88/48
f 17/28/49 58/89/49 57/88/49
f 17/28/50 59/90/50 37/55/50
f 37/55/51 60/91/51 40/60/51
f 63/95/52 65/99/52 66/100/52
f 63/95/53 61/92/53 62/93/53
f 25/39/22 66/100/22 65/99/22
f 9/13/54 65/99/54 64/97/54
f 45/70/55 68/102/55 67/101/55
f 18/29/56 69/103/56 70/104/56
f 14/21/57 70/104/57 68/102/57
f 45/70/58 69/103/58 47/74/58
f 72/106/59 73/107/59 74/108/59
f 14/22/60 71/105/60 72/106/60
f 45/72/61 73/107/61 71/105/61
f 18/30/62 73/107/62 47/75/62
f 103/146/63 80/114/63 77/111/63
f 104/147/64 96/135/64 109/155/64
f 86/124/65 95/134/65 98/137/65
f 97/136/66 8/12/66 33/49/66
f 104/147/67 81/115/67 76/110/67
f 108/154/68 79/113/68 89/127/68
f 87/125/69 12/18/69 5/5/69
f 85/123/70 79/113/70 78/112/70
f 113/160/71 16/26/71 92/130/71
f 88/126/72 16/26/72 8/12/72
f 91/129/73 75/109/73 86/124/73
f 115/164/74 20/34/74 113/160/74
f 123/172/75 112/159/75 81/115/75
f 93/131/76 124/173/76 91/129/76
f 19/32/77 91/129/77 15/24/77
f 19/32/78 101/142/78 93/131/78
f 15/24/79 86/124/79 7/10/79
f 76/110/80 92/130/80 88/126/80
f 81/115/81 113/160/81 92/130/81
f 9/14/82 85/123/82 6/7/82
f 80/114/83 87/125/83 77/111/83
f 122/171/84 90/128/84 108/154/84
f 76/110/85 97/136/85 96/135/85
f 7/10/86 98/137/86 34/51/86
f 34/51/86 87/125/86 5/5/86
f 78/112/87 97/136/87 85/123/87
f 85/123/88 33/49/88 6/7/88
f 98/137/89 77/111/89 87/125/89
f 103/146/90 96/135/90 78/112/90
f 111/158/91 41/64/91 115/163/91
f 111/158/92 114/161/92 110/157/92
f 110/156/93 112/159/93 125/174/93
f 117/166/94 102/144/94 94/132/94
f 101/142/95 126/175/95 93/131/95
f 126/175/96 110/156/96 125/174/96
f 101/143/97 110/157/97 100/140/97
f 42/67/98 111/158/98 101/143/98
f 95/134/99 103/146/99 77/111/99
f 120/169/100 12/18/100 90/128/100
f 130/179/101 82/116/101 84/122/101
f 80/114/68 108/154/68 90/128/68
f 124/173/102 104/147/102 75/109/102
f 75/109/103 109/155/103 95/134/103
f 79/113/104 103/146/104 78/112/104
f 94/133/105 112/159/105 83/119/105
f 114/162/106 102/145/106 99/138/106
f 102/145/107 113/160/107 94/133/107
f 112/159/108 99/138/108 83/119/108
f 118/167/109 117/166/109 116/165/109
f 83/120/110 117/166/110 94/132/110
f 118/167/111 83/120/111 99/139/111
f 119/168/112 99/139/112 102/144/112
f 63/96/113 121/170/113 64/98/113
f 120/169/114 63/96/114 62/94/114
f 89/127/84 122/171/84 108/154/84
f 9/14/115 121/170/115 89/127/115
f 105/149/116 124/173/116 82/117/116
f 84/121/117 125/174/117 107/152/117
f 82/117/118 126/175/118 84/121/118
f 125/174/119 105/149/119 107/152/119
f 128/177/120 129/178/120 127/176/120
f 82/118/121 127/176/121 105/148/121
f 105/150/122 129/178/122 107/153/122
f 129/178/123 84/122/123 107/153/123
f 43/68/124 3/3/124 11/16/124
f 32/47/2 2/2/2 44/69/2
f 31/46/3 1/1/3 22/36/3
f 35/52/125 33/48/125 8/11/125
f 44/69/126 2/2/126 13/19/126
f 48/76/40 25/39/40 10/15/40
f 23/37/127 5/6/127 12/17/127
f 21/35/128 4/4/128 10/15/128
f 16/25/129 20/33/129 54/83/129
f 24/38/130 8/11/130 16/25/130
f 1/1/131 68/102/131 27/41/131
f 20/33/132 41/62/132 56/87/132
f 67/101/133 13/19/133 53/82/133
f 68/102/134 70/104/134 29/43/134
f 27/41/135 29/43/135 19/31/135
f 19/31/136 29/43/136 39/58/136
f 22/36/137 27/41/137 15/23/137
f 2/2/138 24/38/138 28/42/138
f 13/19/139 28/42/139 54/83/139
f 21/35/140 25/39/140 9/13/140
f 23/37/141 26/40/141 11/16/141
f 26/40/22 61/92/22 66/100/22
f 35/52/23 24/38/23 2/2/23
f 36/53/24 22/36/24 7/9/24
f 23/37/24 36/53/24 34/50/24
f 4/4/142 21/35/142 35/52/142
f 21/35/143 6/8/143 33/48/143
f 3/3/144 31/46/144 36/53/144
f 43/68/145 4/4/145 32/47/145
f 52/81/146 56/86/146 41/64/146
f 55/84/147 56/86/147 52/81/147
f 53/82/148 55/85/148 50/78/148
f 40/60/149 60/91/149 58/89/149
f 70/104/150 38/57/150 39/58/150
f 70/104/151 69/103/151 50/78/151
f 50/79/152 52/81/152 39/59/152
f 52/81/153 51/80/153 42/67/153
f 43/68/154 49/77/154 31/46/154
f 12/17/155 62/93/155 61/92/155
f 14/20/156 72/106/156 74/108/156
f 48/76/157 46/73/157 11/16/157
f 44/69/158 67/101/158 68/102/158
f 49/77/42 44/69/42 1/1/42
f 43/68/159 46/73/159 10/15/159
f 30/44/160 17/27/160 53/82/160
f 40/61/161 56/87/161 55/85/161
f 40/61/162 30/44/162 54/83/162
f 37/54/163 55/85/163 53/82/163
f 58/89/164 60/91/164 59/90/164
f 17/28/165 30/45/165 58/89/165
f 17/28/166 57/88/166 59/90/166
f 37/55/167 59/90/167 60/91/167
f 63/95/168 64/97/168 65/99/168
f 63/95/52 66/100/52 61/92/52
f 25/39/22 48/76/22 66/100/22
f 9/13/169 25/39/169 65/99/169
f 45/70/170 14/21/170 68/102/170
f 18/29/171 47/74/171 69/103/171
f 14/21/172 18/29/172 70/104/172
f 45/70/173 67/101/173 69/103/173
f 72/106/174 71/105/174 73/107/174
f 14/22/175 45/71/175 71/105/175
f 45/72/176 47/75/176 73/107/176
f 18/30/177 74/108/177 73/107/177
f 103/146/178 106/151/178 80/114/178
f 104/147/64 76/110/64 96/135/64
f 86/124/65 75/109/65 95/134/65
f 97/136/179 88/126/179 8/12/179
f 104/147/180 123/172/180 81/115/180
f 108/154/181 106/151/181 79/113/181
f 87/125/182 90/128/182 12/18/182
f 85/123/183 89/127/183 79/113/183
f 113/160/184 20/34/184 16/26/184
f 88/126/185 92/130/185 16/26/185
f 91/129/186 124/173/186 75/109/186
f 115/164/187 41/63/187 20/34/187
f 123/172/188 125/174/188 112/159/188
f 93/131/189 126/175/189 124/173/189
f 19/32/190 93/131/190 91/129/190
f 19/32/191 42/66/191 101/142/191
f 15/24/192 91/129/192 86/124/192
f 76/110/193 81/115/193 92/130/193
f 81/115/194 112/159/194 113/160/194
f 9/14/195 89/127/195 85/123/195
f 80/114/196 90/128/196 87/125/196
f 122/171/84 120/169/84 90/128/84
f 76/110/85 88/126/85 97/136/85
f 7/10/86 86/124/86 98/137/86
f 34/51/86 98/137/86 87/125/86
f 78/112/197 96/135/197 97/136/197
f 85/123/198 97/136/198 33/49/198
f 98/137/199 95/134/199 77/111/199
f 103/146/200 109/155/200 96/135/200
f 111/158/201 51/80/201 41/64/201
f 111/158/202 115/163/202 114/161/202
f 110/156/203 114/162/203 112/159/203
f 117/166/204 119/168/204 102/144/204
f 101/142/205 100/141/205 126/175/205
f 126/175/206 100/141/206 110/156/206
f 101/143/207 111/158/207 110/157/207
f 42/67/208 51/80/208 111/158/208
f 95/134/209 109/155/209 103/146/209
f 120/169/210 62/94/210 12/18/210
f 130/179/211 128/177/211 82/116/211
f 80/114/212 106/151/212 108/154/212
f 124/173/213 123/172/213 104/147/213
f 75/109/103 104/147/103 109/155/103
f 79/113/214 106/151/214 103/146/214
f 94/133/215 113/160/215 112/159/215
f 114/162/216 115/164/216 102/145/216
f 102/145/217 115/164/217 113/160/217
f 112/159/218 114/162/218 99/138/218
f 118/167/219 119/168/219 117/166/219
f 83/120/220 116/165/220 117/166/220
f 118/167/221 116/165/221 83/120/221
f 119/168/222 118/167/222 99/139/222
f 63/96/223 122/171/223 121/170/223
f 120/169/223 122/171/223 63/96/223
f 89/127/84 121/170/84 122/171/84
f 9/14/224 64/98/224 121/170/224
f 105/149/225 123/172/225 124/173/225
f 84/121/226 126/175/226 125/174/226
f 82/117/227 124/173/227 126/175/227
f 125/174/228 123/172/228 105/149/228
f 128/177/229 130/179/229 129/178/229
f 82/118/230 128/177/230 127/176/230
f 105/150/231 127/176/231 129/178/231
f 129/178/232 130/179/232 84/122/232
